<svg width="22" height="22" viewBox="0 0 22 22" fill="none" xmlns="http://www.w3.org/2000/svg">
<path d="M14.71 15.2929C14.718 15.5249 14.6792 15.7562 14.5959 15.9729C14.5126 16.1896 14.3866 16.3873 14.2253 16.5542C14.064 16.7212 13.8708 16.854 13.6571 16.9447C13.4434 17.0354 13.2137 17.0822 12.9815 17.0823C12.7494 17.0823 12.5196 17.0357 12.3059 16.9451C12.0922 16.8545 11.8989 16.7218 11.7375 16.5549C11.5761 16.3881 11.4499 16.1904 11.3665 15.9738C11.2831 15.7572 11.2442 15.526 11.252 15.294C11.2627 14.8425 11.4496 14.4131 11.7727 14.0975C12.0957 13.7819 12.5294 13.6052 12.981 13.605C13.4327 13.6049 13.8664 13.7814 14.1897 14.0968C14.5129 14.4122 14.7 14.8415 14.711 15.2929M19.161 13.4449C19.1667 13.6756 19.1262 13.905 19.0419 14.1197C18.9576 14.3345 18.8312 14.5302 18.6701 14.6953C18.5091 14.8605 18.3166 14.9918 18.1041 15.0814C17.8916 15.1711 17.6632 15.2174 17.4325 15.2175C17.2019 15.2177 16.9735 15.1717 16.7608 15.0822C16.5482 14.9928 16.3556 14.8617 16.1943 14.6967C16.0331 14.5318 15.9065 14.3362 15.8219 14.1216C15.7374 13.9069 15.6966 13.6776 15.702 13.4469C15.7018 12.9881 15.8838 12.548 16.208 12.2234C16.5323 11.8987 16.9722 11.7162 17.431 11.7159C17.8898 11.7157 18.33 11.8977 18.6546 12.2219C18.9792 12.5462 19.1618 12.9861 19.162 13.4449M19.161 4.57095C19.1667 4.80157 19.1262 5.03099 19.0419 5.24572C18.9576 5.46045 18.8312 5.65615 18.6701 5.82132C18.5091 5.98648 18.3166 6.11776 18.1041 6.20744C17.8916 6.29712 17.6632 6.34339 17.4325 6.34353C17.2019 6.34366 16.9735 6.29766 16.7608 6.20822C16.5482 6.11878 16.3556 5.98772 16.1943 5.82275C16.0331 5.65777 15.9065 5.46222 15.8219 5.24758C15.7374 5.03295 15.6966 4.80357 15.702 4.57295C15.7018 4.11412 15.8838 3.67399 16.208 3.34936C16.5323 3.02474 16.9722 2.84221 17.431 2.84195C17.8898 2.84168 18.33 3.0237 18.6546 3.34795C18.9792 3.6722 19.1618 4.11212 19.162 4.57095M14.707 2.72795C14.7127 2.95857 14.6722 3.18799 14.5879 3.40272C14.5036 3.61745 14.3772 3.81315 14.2162 3.97832C14.0551 4.14348 13.8626 4.27476 13.6501 4.36444C13.4376 4.45413 13.2092 4.50039 12.9785 4.50053C12.7479 4.50066 12.5195 4.45466 12.3068 4.36522C12.0942 4.27578 11.9016 4.14472 11.7403 3.97975C11.5791 3.81477 11.4525 3.61922 11.3679 3.40458C11.2834 3.18995 11.2426 2.96057 11.248 2.72995C11.2586 2.27845 11.4453 1.84899 11.7683 1.53332C12.0913 1.21765 12.5249 1.04079 12.9765 1.04053C13.4282 1.04027 13.862 1.21662 14.1853 1.53192C14.5087 1.84722 14.6959 2.27646 14.707 2.72795ZM10.279 4.55695C10.2846 4.78757 10.2441 5.01698 10.1597 5.23169C10.0753 5.4464 9.94889 5.64206 9.78779 5.80718C9.62669 5.9723 9.4342 6.10352 9.22163 6.19315C9.00906 6.28277 8.78072 6.32897 8.55003 6.32904C8.31935 6.3291 8.09097 6.28303 7.87836 6.19353C7.66574 6.10404 7.47317 5.97292 7.31197 5.8079C7.15078 5.64287 7.02421 5.44728 6.93973 5.23262C6.85524 5.01796 6.81454 4.78857 6.82002 4.55795C6.83075 4.10645 7.0176 3.67705 7.34067 3.36147C7.66374 3.0459 8.09741 2.86917 8.54903 2.86904C9.00066 2.86891 9.43442 3.04539 9.75768 3.36078C10.0809 3.67617 10.268 4.10546 10.279 4.55695ZM8.44702 9.00895C8.45498 9.24095 8.41616 9.47218 8.33289 9.68887C8.24961 9.90555 8.12358 10.1033 7.9623 10.2702C7.80102 10.4372 7.60778 10.57 7.3941 10.6607C7.18042 10.7514 6.95067 10.7982 6.71854 10.7983C6.4864 10.7983 6.25662 10.7517 6.04289 10.6611C5.82916 10.5705 5.63585 10.4378 5.47447 10.2709C5.31309 10.1041 5.18694 9.90644 5.10354 9.6898C5.02014 9.47316 4.9812 9.24195 4.98902 9.00995C5.00414 8.56156 5.19286 8.13659 5.51536 7.82469C5.83785 7.5128 6.2689 7.33839 6.71754 7.33826C7.16618 7.33813 7.59732 7.51229 7.92 7.824C8.24267 8.1357 8.43164 8.56057 8.44702 9.00895ZM10.26 13.4449C10.268 13.6769 10.2293 13.9082 10.1461 14.1249C10.0629 14.3416 9.9369 14.5394 9.77566 14.7064C9.61443 14.8734 9.42123 15.0062 9.20758 15.097C8.99393 15.1878 8.76419 15.2346 8.53206 15.2348C8.29992 15.2349 8.07013 15.1883 7.85637 15.0978C7.64262 15.0072 7.44927 14.8746 7.28784 14.7078C7.12641 14.541 7.00021 14.3434 6.91674 14.1268C6.83328 13.9102 6.79426 13.679 6.80202 13.4469C6.81261 12.9954 6.99934 12.566 7.32232 12.2503C7.6453 11.9346 8.07892 11.7578 8.53054 11.7575C8.98217 11.7573 9.41599 11.9336 9.73933 12.2489C10.0627 12.5642 10.2489 12.9935 10.26 13.4449ZM20.998 9.00895C21.0059 9.24095 20.967 9.47217 20.8837 9.68883C20.8004 9.9055 20.6743 10.1032 20.5129 10.2701C20.3516 10.437 20.1583 10.5697 19.9446 10.6604C19.7309 10.751 19.5012 10.7978 19.269 10.7978C19.0369 10.7978 18.8071 10.751 18.5934 10.6604C18.3797 10.5697 18.1864 10.437 18.0251 10.2701C17.8638 10.1032 17.7377 9.9055 17.6543 9.68883C17.571 9.47217 17.5321 9.24095 17.54 9.00895C17.5553 8.56057 17.7441 8.13565 18.0667 7.82385C18.3893 7.51205 18.8204 7.33776 19.269 7.33776C19.7177 7.33776 20.1488 7.51205 20.4713 7.82385C20.7939 8.13565 20.9828 8.56057 20.998 9.00895Z" stroke="#CCCCCC" stroke-width="1.5" stroke-linecap="round" stroke-linejoin="round"/>
<path d="M6.75905 13.8469L1.88705 16.3009C1.16005 16.6949 0.727051 17.1529 1.20005 17.9989C1.40005 18.3689 1.82205 18.9909 2.43005 19.6019M2.43005 19.6019C2.94175 20.1277 3.53633 20.5649 4.19005 20.8979C4.62305 21.0539 5.14905 21.1799 5.69905 20.0899L8.14705 15.2339M2.43005 19.6019L4.10505 17.8909" stroke="#CCCCCC" stroke-width="1.5" stroke-linecap="round" stroke-linejoin="round"/>
</svg>
