<?xml version="1.0" encoding="UTF-8"?><svg id="Layer_2" xmlns="http://www.w3.org/2000/svg" viewBox="0 0 335.82 334.12"><g id="BG"><path d="M191.58,69.58c.87.99,1.84,1.34,1.84,1.34,0,0,1.02-.14,2.08-.92,1.06-.79,2.13-2.22,2.31-4.85l-7.49-.77c-.37,2.59.39,4.22,1.26,5.21h0Z" style="fill:#efefef;"/><path d="M199.44,70.26c.94.93,1.93,1.21,1.93,1.21,0,0,1.01-.21,2.01-1.06.5-.43,1-1.02,1.36-1.83.37-.83.6-1.88.6-3.19l-7.53-.24c-.18,2.6.68,4.19,1.62,5.11h.01Z" style="fill:#efefef;"/><path d="M207.32,70.38c1,.87,2.01,1.08,2.01,1.08,0,0,.99-.27,1.93-1.19.94-.9,1.8-2.58,1.61-5.17l-7.53.29c0,2.61.97,4.13,1.98,5h0Z" style="fill:#efefef;"/><path d="M215.19,69.95c1.06.8,2.08.95,2.08.95,0,0,.97-.33,1.84-1.31.87-1.02,1.61-2.72,1.25-5.3l-7.49.81c.18,2.61,1.26,4.06,2.32,4.86h0Z" style="fill:#efefef;"/><path d="M223.01,68.99c1.11.73,2.14.82,2.14.82,0,0,.24-.1.57-.33.34-.22.78-.58,1.17-1.13.8-1.09,1.43-2.81.89-5.36l-7.43,1.3c.36,2.59,1.53,3.97,2.65,4.7h.01Z" style="fill:#efefef;"/><path d="M302.24,25c-.17.14-.34.28-.51.41-.3-.64-.74-1.3-1.37-1.99l-5.75,5.02c.36.43.73.78,1.09,1.09-.08.04-.15.08-.23.13-.24-.4-.51-.8-.87-1.22l-5.04,4.08c-21.61,8.75-42.92-.64-42.92-.64,4.82,13.06-2.57,23.1-7.73,28.15l-3.78,1.16c.17.61.37,1.15.61,1.62-.1.08-.21.16-.3.23-.03-.56-.13-1.17-.31-1.84l-7.34,1.78c1.03,5.12,5.15,5.22,5.15,5.22,0,0,.23-.11.55-.36.32-.27.72-.67,1.09-1.24.48-.75.87-1.78.88-3.13.19-.04.39-.08.58-.13.69,1.13,1.54,1.82,2.33,2.21.6.3,1.16.44,1.57.51.41.06.66.03.66.03,0,0,2.27-1.42,2.24-4.56.24-.08.48-.16.71-.24.72.96,1.55,1.53,2.31,1.85.62.28,1.17.35,1.58.38.4.03.66,0,.66,0,0,0,2.16-1.51,1.98-4.61.24-.1.49-.19.73-.29.77.9,1.62,1.42,2.37,1.67,1.25.43,2.25.25,2.25.25,0,0,2.12-1.64,1.73-4.76.22-.1.43-.21.65-.32,2.16,2.31,4.78,1.72,4.78,1.72,0,0,.78-.66,1.25-1.89.3-.77.45-1.81.21-3.05.2-.11.39-.22.59-.33,2.29,2.28,4.93,1.57,4.93,1.57,0,0,.19-.17.43-.5.24-.32.53-.81.72-1.46.26-.83.36-1.9.03-3.17.18-.11.36-.22.54-.33.95.89,1.94,1.31,2.79,1.48.65.13,1.23.12,1.63.08.41-.04.65-.13.65-.13,0,0,1.93-2.06.92-5.26.16-.11.33-.22.49-.33,1.01.89,2.04,1.28,2.92,1.42,1.31.19,2.25-.18,2.25-.18,0,0,1.87-2.14.69-5.3.15-.11.31-.22.46-.33,2.63,2.13,5.25,1.04,5.25,1.04,0,0,.65-.78.89-2.08.16-.87.11-1.97-.4-3.22.16-.12.31-.24.47-.36,2.7,1.99,5.26.83,5.26.83,0,0,1.64-2.23.31-5.25.17-.14.33-.27.49-.4,1.08.72,2.13.98,2.99,1,1.32.03,2.22-.43,2.22-.43,0,0,1.54-2.21.19-5.13.17-.15.36-.31.52-.46,2.76,1.61,5.12.32,5.12.32,0,0,2.17-3.43-1.48-7.16l-5.57,5.23c.63.7,1.27,1.21,1.88,1.58v.02Z" style="fill:#efefef;"/><path d="M313.03,19.86s.53-.86.56-2.19c.04-1.33-.41-3.1-2.3-4.9l-5.37,5.43c3.65,3.77,7.11,1.66,7.11,1.66Z" style="fill:#efefef;"/><path d="M316.3,14.84c1.32-.11,2.17-.67,2.17-.67,0,0,.5-.88.48-2.21-.01-1.33-.52-3.08-2.48-4.81l-5.17,5.61c1.88,1.8,3.69,2.18,5,2.07h0Z" style="fill:#efefef;"/><path d="M321.54,9.03c1.32-.15,2.14-.75,2.14-.75,0,0,.45-.91.39-2.24-.07-1.33-.66-3.05-2.7-4.68l-4.91,5.8c1.96,1.73,3.76,2.03,5.07,1.87h.01Z" style="fill:#efefef;"/><path d="M128.85,40.72c.93.93,1.94,1.21,1.94,1.21,0,0,.25-.05.63-.21.38-.17.88-.4,1.37-.88.99-.92,1.9-2.5,1.81-5.11l-7.27-.19c-.23,2.58.59,4.28,1.53,5.18h-.01Z" style="fill:#efefef;"/><path d="M136.72,40.73c1.03.81,2.06.95,2.06.95,0,0,.98-.33,1.86-1.31.88-1.01,1.6-2.7,1.21-5.28l-7.26.64c.07,2.61,1.08,4.13,2.13,4.99h0Z" style="fill:#efefef;"/><path d="M144.53,39.8c.57.38,1.1.53,1.5.63.4.09.65.1.65.1,0,0,.94-.44,1.7-1.52.77-1.07,1.3-2.86.63-5.37l-7.16,1.45c.37,2.58,1.54,3.97,2.68,4.7h0Z" style="fill:#efefef;"/><path d="M152.17,38.02c.6.31,1.15.43,1.56.48.4.05.66.03.66.03,0,0,.88-.54,1.52-1.69.65-1.13,1-2.97.09-5.4l-7,2.2c.65,2.53,1.96,3.78,3.16,4.38h0Z" style="fill:#efefef;"/><path d="M159.59,35.49c.63.25,1.19.32,1.59.33.41.01.66-.03.66-.03,0,0,.82-.62,1.35-1.82.54-1.2.72-3.05-.4-5.39l-6.78,2.86c.9,2.45,2.33,3.56,3.58,4.05h0Z" style="fill:#efefef;"/><path d="M166.72,32.29c.64.19,1.2.2,1.61.19.41-.02.65-.08.65-.08,0,0,.76-.68,1.19-1.92.42-1.26.47-3.09-.85-5.34l-6.53,3.45c1.12,2.36,2.65,3.34,3.93,3.71h0Z" style="fill:#efefef;"/><path d="M173.54,28.52c1.29.24,2.26-.08,2.26-.08,0,0,.71-.72,1.03-2.01.32-1.29.24-3.11-1.24-5.26l-6.27,3.96c1.31,2.26,2.91,3.12,4.22,3.39Z" style="fill:#efefef;"/><path d="M180.04,24.23c1.31.16,2.25-.22,2.25-.22,0,0,.16-.19.36-.55.19-.36.41-.89.52-1.54.23-1.31.03-3.1-1.59-5.15l-5.99,4.4c1.47,2.15,3.15,2.91,4.45,3.06Z" style="fill:#efefef;"/><path d="M186.22,19.51c1.33.09,2.23-.37,2.23-.37,0,0,.59-.82.75-2.13.15-1.31-.18-3.11-1.92-5.05l-5.69,4.81c1.61,2.05,3.32,2.66,4.64,2.74h-.01Z" style="fill:#efefef;"/><path d="M192.08,14.41c1.32,0,2.2-.51,2.2-.51,0,0,.54-.86.61-2.18s-.37-3.09-2.23-4.92l-5.39,5.15c1.74,1.94,3.5,2.47,4.81,2.45h0Z" style="fill:#efefef;"/><path d="M197.62,8.96c1.32-.08,2.17-.65,2.17-.65,0,0,.49-.89.47-2.21-.02-1.32-.58-3.06-2.57-4.74l-5.02,5.46c1.86,1.83,3.64,2.24,4.96,2.14h-.01Z" style="fill:#efefef;"/><path d="M88.19,182.74c-.08,1.32.36,2.25.36,2.25,0,0,.82.63,2.12.82,1.31.19,3.08-.06,5.06-1.8l-4.75-5.85c-2.09,1.57-2.71,3.26-2.79,4.58h0Z" style="fill:#efefef;"/><path d="M93.26,188.77c0,1.32.51,2.22.51,2.22,0,0,.86.57,2.17.67.66.05,1.43-.02,2.26-.33.85-.33,1.76-.9,2.68-1.83l-5.15-5.49c-1.97,1.71-2.48,3.44-2.47,4.77h0Z" style="fill:#efefef;"/><path d="M98.75,194.43c.1,1.32.66,2.19.66,2.19,0,0,.89.51,2.21.52,1.3.03,3.09-.55,4.79-2.52l-5.53-5.12c-1.85,1.85-2.23,3.61-2.13,4.93h0Z" style="fill:#efefef;"/><path d="M104.62,199.7c.18,1.32.8,2.14.8,2.14,0,0,.92.45,2.23.37,1.34-.1,3.06-.78,4.63-2.86l-5.87-4.73c-1.71,1.97-1.98,3.76-1.79,5.08h0Z" style="fill:#efefef;"/><path d="M110.83,204.55c.27,1.31.94,2.09.94,2.09,0,0,.24.1.64.17.4.08.96.14,1.63.03,1.33-.2,3-.97,4.43-3.16l-6.18-4.33c-1.58,2.08-1.72,3.89-1.45,5.2h-.01Z" style="fill:#efefef;"/><path d="M197.95,229.46c-.22-.02-.44-.05-.66-.07.23-.67.4-1.44.44-2.37l-7.62-.52c-.05.56-.04,1.07,0,1.54-.08-.02-.17-.05-.25-.07.11-.45.2-.93.25-1.47l-6.45-.68c-21.47-9.09-29.9-30.8-29.9-30.8-5.83,12.64-18.15,14.52-25.37,14.44l-3.49-1.85c-.31.55-.55,1.07-.71,1.57-.13-.02-.26-.03-.37-.05.38-.42.74-.92,1.08-1.52l-6.45-3.93c-2.89,4.35-.05,7.33-.05,7.33,0,0,.24.09.65.13.41.04.99.04,1.64-.11.87-.19,1.88-.65,2.83-1.59.17.11.34.22.5.32-.32,1.29-.19,2.37.09,3.21.21.64.51,1.13.75,1.46s.44.49.44.49c0,0,2.61.6,4.81-1.64.22.12.45.22.67.34-.17,1.19.02,2.17.32,2.94.24.63.58,1.08.85,1.39.27.31.47.46.47.46,0,0,2.6.46,4.66-1.86.24.1.48.21.72.31-.09,1.18.14,2.15.5,2.86.58,1.18,1.42,1.76,1.42,1.76,0,0,2.66.34,4.59-2.14.23.08.46.16.68.24-.1,3.16,2.16,4.59,2.16,4.59,0,0,1.02.09,2.22-.45.76-.33,1.6-.96,2.31-2.01.22.06.43.12.65.18.01,3.23,2.37,4.6,2.37,4.6,0,0,.25.01.65-.05s.95-.2,1.54-.52c.77-.41,1.6-1.09,2.26-2.22.2.05.41.1.61.15.04,1.3.44,2.3.93,3.02.37.55.78.95,1.1,1.21s.55.37.55.37c0,0,2.82-.09,4.36-3.07.19.04.38.08.58.12.09,1.34.54,2.35,1.06,3.07.79,1.06,1.72,1.47,1.72,1.47,0,0,2.83-.19,4.24-3.26.19.03.37.06.56.09.35,3.37,2.97,4.45,2.97,4.45,0,0,1.01-.1,2.1-.84.73-.5,1.47-1.32,1.99-2.56.2.03.39.05.58.08.5,3.32,3.13,4.31,3.13,4.31,0,0,2.73-.42,3.93-3.49.22.02.42.04.63.06.26,1.28.81,2.2,1.4,2.82.91.96,1.88,1.26,1.88,1.26,0,0,2.66-.47,3.76-3.49.23.02.47.03.69.05.81,3.09,3.4,3.84,3.4,3.84,0,0,3.96-.89,4.01-6.11l-7.64-.24c-.05.94.04,1.75.22,2.44h.04Z" style="fill:#efefef;"/><path d="M209.22,233.46s.98-.23,1.95-1.15c.97-.91,1.9-2.48,1.84-5.09l-7.64.04c-.09,5.25,3.85,6.2,3.85,6.2h0Z" style="fill:#efefef;"/><path d="M215.08,232.22c1.01.86,2,1.06,2,1.06,0,0,.98-.27,1.91-1.22.93-.95,1.81-2.55,1.64-5.15l-7.63.31c.06,2.61,1.06,4.15,2.07,5h.01Z" style="fill:#efefef;"/><path d="M222.9,231.81c1.04.83,2.05.98,2.05.98,0,0,.97-.33,1.86-1.3.9-.99,1.69-2.63,1.4-5.22l-7.57.63c.16,2.61,1.22,4.09,2.26,4.91h0Z" style="fill:#efefef;"/><path d="M233.43,224.87c.98-.89,1.3-1.86,1.3-1.86,0,0-.16-1.01-.98-2.05s-2.3-2.11-4.91-2.26l-.63,7.57c2.6.29,4.23-.51,5.22-1.4Z" style="fill:#efefef;"/><path d="M233.99,217.05c.96-.93,1.22-1.91,1.22-1.91,0,0-.2-1-1.06-2-.85-1.01-2.4-2.01-5-2.07l-.32,7.63c2.61.16,4.2-.71,5.15-1.64h.01Z" style="fill:#efefef;"/><path d="M234.25,209.23c.92-.97,1.15-1.95,1.15-1.95,0,0-.96-3.94-6.2-3.85l-.04,7.64c2.61.06,4.18-.87,5.09-1.84Z" style="fill:#efefef;"/><path d="M211.74,121.2c.03.24.07.53.11.85-.7.16-1.47.44-2.29.91l2.49,4.7c-.28,7.33-2.81,18.15-14.42,23.5,0,0,20.16,7.83,29.76,27.6l.26,1.82c.19-.02.37-.06.55-.09,0,.02.01.03.02.05-.19.01-.37.02-.57.05l.8,7.59c.88-.07,1.62-.25,2.26-.49.05.2.1.41.15.61-.69-.14-1.49-.2-2.41-.12l.52,7.62c1.28-.06,2.28-.34,3.08-.73.04.4.09.79.13,1.19-.84-.33-1.89-.53-3.21-.46l.24,7.64c5.22-.05,6.11-4.01,6.11-4.01,0,0-.63-2.17-3.12-3.16-.02-.39-.05-.79-.08-1.23,2.41-1.22,2.8-3.47,2.8-3.47,0,0-.31-.97-1.26-1.88-.5-.47-1.18-.91-2.07-1.21-.04-.38-.07-.75-.11-1.14,2.44-1.3,2.79-3.61,2.79-3.61,0,0-.84-2.22-3.54-2.97-.05-.36-.1-.72-.14-1.09.85-.48,1.45-1.07,1.85-1.65.74-1.09.84-2.1.84-2.1,0,0-.9-2.21-3.65-2.84-.06-.35-.12-.71-.17-1.06,2.39-1.48,2.55-3.86,2.55-3.86,0,0-.41-.93-1.47-1.72-.57-.41-1.31-.78-2.26-.96-.07-.36-.15-.73-.22-1.1,2.28-1.59,2.36-3.94,2.36-3.94,0,0-.11-.23-.37-.55s-.65-.73-1.21-1.1c-.56-.37-1.28-.7-2.18-.85-.09-.39-.19-.78-.28-1.16.72-.56,1.19-1.19,1.51-1.79.32-.59.46-1.14.52-1.54.06-.4.05-.65.05-.65,0,0-1.12-1.93-3.73-2.31-.12-.42-.23-.84-.36-1.26.64-.57,1.06-1.19,1.31-1.76.54-1.2.45-2.22.45-2.22,0,0-1.16-1.82-3.68-2.12-.15-.45-.31-.9-.47-1.35,1.73-1.84,1.46-3.97,1.46-3.97,0,0-.58-.84-1.76-1.42-.51-.26-1.16-.45-1.93-.5-.19-.47-.39-.94-.59-1.41,1.56-1.91,1.2-3.97,1.2-3.97,0,0-.15-.2-.46-.47-.31-.27-.75-.6-1.39-.85-.55-.22-1.21-.37-1.97-.38-.22-.45-.44-.9-.68-1.35,1.48-2.01,1.01-4.08,1.01-4.08,0,0-.16-.2-.49-.44-.34-.24-.83-.54-1.46-.75-.62-.21-1.37-.33-2.23-.26-.22-.35-.45-.71-.68-1.06.53-.73.82-1.46.96-2.11.14-.65.14-1.23.11-1.64-.04-.41-.13-.65-.13-.65,0,0-2.98-2.84-7.33.05l3.93,6.45c.97-.55,1.66-1.15,2.19-1.77h0Z" style="fill:#efefef;"/><path d="M208.78,112.09c.11-.67.05-1.23-.03-1.63-.08-.4-.18-.64-.18-.64,0,0-.79-.67-2.09-.94-1.31-.27-3.12-.13-5.2,1.45l4.33,6.18c2.19-1.43,2.96-3.09,3.16-4.42h.01Z" style="fill:#efefef;"/><path d="M204.15,105.72c.08-1.31-.37-2.23-.37-2.23,0,0-.83-.62-2.14-.8-1.32-.19-3.11.08-5.08,1.79l4.73,5.87c2.09-1.56,2.76-3.29,2.86-4.63Z" style="fill:#efefef;"/><path d="M199.08,99.68c-.01-1.32-.52-2.21-.52-2.21,0,0-.86-.56-2.19-.66-1.32-.1-3.09.29-4.93,2.13l5.12,5.53c1.97-1.7,2.55-3.49,2.52-4.79h0Z" style="fill:#efefef;"/><path d="M193.27,96.27c.32-.83.38-1.6.33-2.26-.1-1.31-.67-2.17-.67-2.17,0,0-.9-.5-2.22-.51-1.33,0-3.05.5-4.77,2.47l5.49,5.15c.92-.92,1.5-1.83,1.83-2.68h.01Z" style="fill:#efefef;"/><path d="M187.74,88.73c-.19-1.31-.82-2.12-.82-2.12,0,0-.93-.44-2.25-.36-1.32.08-3.01.7-4.58,2.79l5.85,4.75c1.73-1.98,1.99-3.75,1.8-5.06h0Z" style="fill:#efefef;"/><path d="M64.23,117.97c0,1.32.52,2.22.52,2.22,0,0,.22.14.59.3.39.15.91.34,1.59.35,1.35.05,3.11-.42,4.89-2.33l-5.01-5.28c-1.99,1.66-2.61,3.44-2.58,4.75h0Z" style="fill:#efefef;"/><path d="M69.79,123.54c.16,1.3.78,2.13.78,2.13,0,0,.93.46,2.24.39,1.33-.09,3.04-.78,4.59-2.88l-5.59-4.68c-1.8,1.9-2.16,3.69-2.03,5.03h.01Z" style="fill:#efefef;"/><path d="M75.97,128.4c.13.67.4,1.16.61,1.51.22.35.39.53.39.53,0,0,.98.35,2.27.12,1.3-.21,2.94-1.1,4.25-3.35l-6.09-4.04c-1.57,2.09-1.72,3.9-1.43,5.22h0Z" style="fill:#efefef;"/><path d="M82.63,132.56c.2.64.51,1.12.76,1.44s.44.49.44.49c0,0,1,.24,2.27-.12,1.26-.34,2.81-1.39,3.89-3.76l-6.5-3.39c-1.33,2.25-1.28,4.06-.86,5.34h0Z" style="fill:#efefef;"/><path d="M89.67,136.01c.27.62.61,1.07.89,1.36.28.3.49.44.49.44,0,0,1.02.14,2.24-.33,1.23-.47,2.66-1.64,3.53-4.1l-6.82-2.77c-1.1,2.37-.87,4.17-.33,5.39h0Z" style="fill:#efefef;"/><path d="M96.97,138.79c.32.59.71.99,1.01,1.27.3.27.52.4.52.4,0,0,1.02.06,2.2-.52,1.19-.59,2.52-1.86,3.18-4.38l-7.06-2.18c-.88,2.46-.49,4.23.15,5.4h0Z" style="fill:#efefef;"/><path d="M104.47,140.95c.74,1.08,1.65,1.54,1.65,1.54,0,0,1.02,0,2.15-.69,1.14-.69,2.37-2.03,2.84-4.6l-7.23-1.63c-.68,2.52-.14,4.26.59,5.38h0Z" style="fill:#efefef;"/><path d="M112.1,142.51c.81,1.04,1.75,1.43,1.75,1.43,0,0,.25-.02.64-.13.39-.12.91-.34,1.46-.72,1.09-.76,2.22-2.17,2.52-4.76l-7.35-1.13c-.49,2.56.17,4.29.99,5.31h-.01Z" style="fill:#efefef;"/><path d="M119.8,143.54c.88,1,1.84,1.31,1.84,1.31,0,0,1-.16,2.03-.98,1.03-.83,2.08-2.33,2.21-4.93l-7.42-.63c-.31,2.59.46,4.23,1.34,5.22h0Z" style="fill:#efefef;"/><path d="M127.55,144.09c.94.93,1.91,1.2,1.91,1.2,0,0,.99-.23,1.97-1.11s1.93-2.45,1.9-5.06l-7.45-.17c-.15,2.6.73,4.22,1.67,5.14h0Z" style="fill:#efefef;"/><path d="M135.32,144.14c.99.88,1.99,1.07,1.99,1.07,0,0,.98-.28,1.9-1.23.92-.95,1.76-2.57,1.54-5.17l-7.42.31c.02,2.61.99,4.16,1.99,5.02h0Z" style="fill:#efefef;"/><path d="M145.92,137.27c.96-.92,1.23-1.9,1.23-1.9,0,0-.19-1-1.07-1.99-.86-1-2.41-1.97-5.02-1.99l-.31,7.42c2.6.22,4.23-.62,5.17-1.54h0Z" style="fill:#efefef;"/><path d="M146.11,129.49c.88-.98,1.11-1.97,1.11-1.97,0,0-.27-.98-1.2-1.92-.92-.94-2.54-1.81-5.14-1.67l.17,7.45c2.61.03,4.18-.92,5.06-1.9h0Z" style="fill:#efefef;"/><path d="M145.82,121.73c.82-1.03.98-2.03.98-2.03,0,0-.32-.96-1.32-1.84-.99-.88-2.63-1.65-5.22-1.34l.63,7.42c2.61-.13,4.11-1.17,4.93-2.21h0Z" style="fill:#efefef;"/><path d="M145.03,114c.38-.54.6-1.07.72-1.46.11-.39.13-.64.13-.64,0,0-.4-.94-1.43-1.75-1.02-.82-2.75-1.47-5.31-.98l1.13,7.35c2.59-.3,4.01-1.43,4.77-2.52h-.01Z" style="fill:#efefef;"/><path d="M143.73,106.33c.68-1.13.69-2.15.69-2.15,0,0-.45-.91-1.54-1.65-1.12-.74-2.86-1.27-5.38-.59l1.63,7.23c2.57-.47,3.91-1.7,4.6-2.84h0Z" style="fill:#efefef;"/><path d="M141.88,98.76c.58-1.18.52-2.2.52-2.2,0,0-.13-.22-.4-.52-.28-.3-.68-.69-1.27-1.01-1.17-.65-2.95-1.03-5.4-.15l2.18,7.06c2.52-.66,3.79-1.99,4.38-3.18h0Z" style="fill:#efefef;"/><path d="M139.42,91.35c.48-1.23.33-2.24.33-2.24,0,0-.15-.21-.44-.49s-.74-.63-1.36-.89c-1.23-.54-3.03-.77-5.39.33l2.77,6.82c2.45-.86,3.63-2.3,4.1-3.53h-.01Z" style="fill:#efefef;"/><path d="M136.31,84.17c.36-1.27.12-2.27.12-2.27,0,0-.17-.19-.49-.44s-.8-.56-1.44-.76c-1.28-.42-3.09-.47-5.34.86l3.39,6.5c2.36-1.08,3.42-2.62,3.75-3.89h.01Z" style="fill:#efefef;"/><path d="M132.51,77.31c.22-1.3-.12-2.27-.12-2.27,0,0-.19-.18-.53-.39-.35-.21-.84-.48-1.51-.61-1.32-.28-3.13-.13-5.22,1.43l4.04,6.09c2.24-1.31,3.13-2.95,3.35-4.24h0Z" style="fill:#efefef;"/><path d="M128,70.88c.07-1.31-.39-2.24-.39-2.24,0,0-.83-.62-2.13-.78-1.35-.13-3.14.23-5.03,2.03l4.68,5.59c2.1-1.55,2.78-3.26,2.88-4.59h0Z" style="fill:#efefef;"/><path d="M122.78,64.99c-.01-.68-.2-1.2-.35-1.59-.15-.38-.3-.59-.3-.59,0,0-.9-.51-2.22-.52-1.3-.03-3.08.59-4.75,2.58l5.28,5.01c1.91-1.78,2.38-3.54,2.33-4.89h0Z" style="fill:#efefef;"/><path d="M222.59,220.45c4.08-4.08,4.08-10.7,0-14.78s-10.7-4.08-14.78,0-4.08,10.7,0,14.78,10.7,4.08,14.78,0Z" style="fill:#efefef;"/><path d="M7.97,322.14c1.32.06,2.24-.39,2.24-.39,0,0,.6-.82.75-2.14.16-1.32-.14-3.12-1.87-5.07l-5.8,4.91c1.63,2.04,3.35,2.63,4.68,2.7h0Z" style="fill:#efefef;"/><path d="M13.9,317.01c1.33.02,2.21-.48,2.21-.48,0,0,.56-.85.67-2.17s-.27-3.12-2.07-5l-5.61,5.17c1.73,1.96,3.48,2.47,4.81,2.48h-.01Z" style="fill:#efefef;"/><path d="M19.61,311.66c1.33-.03,2.19-.56,2.19-.56,0,0,2.11-3.46-1.66-7.11l-5.43,5.37c1.8,1.89,3.57,2.34,4.9,2.3h0Z" style="fill:#efefef;"/><path d="M65.94,233.49c-.15.2-.33.43-.53.68-.61-.39-1.35-.73-2.26-.97l-1.56,5.09c-5.38,4.98-14.82,10.84-26.81,6.42,0,0,8.72,19.79,1.53,40.56l-1.1,1.47c.15.12.3.22.45.32,0,.02-.01.03-.02.05-.14-.12-.27-.25-.43-.37l-4.81,5.93c.67.57,1.32.97,1.95,1.25-.11.18-.22.36-.33.54-.39-.59-.91-1.19-1.62-1.79l-5.02,5.75c.94.86,1.86,1.37,2.69,1.66-.25.31-.49.62-.75.93-.36-.83-.97-1.71-1.94-2.59l-5.23,5.57c3.73,3.66,7.16,1.48,7.16,1.48,0,0,1.09-1.98.03-4.44.26-.29.53-.6.81-.92,2.57.84,4.43-.47,4.43-.47,0,0,.47-.9.43-2.22-.02-.68-.19-1.48-.61-2.32.24-.29.48-.58.73-.89,2.64.8,4.53-.58,4.53-.58,0,0,.98-2.16-.4-4.6.22-.28.45-.58.67-.87.94.26,1.78.27,2.48.14,1.3-.24,2.08-.89,2.08-.89,0,0,.92-2.2-.57-4.59.21-.29.42-.58.63-.88,2.74.64,4.53-.93,4.53-.93,0,0,.37-.95.18-2.25-.11-.69-.38-1.48-.92-2.27.21-.31.41-.62.62-.94,2.73.49,4.45-1.12,4.45-1.12,0,0,.08-.24.13-.65.04-.41.05-.98-.08-1.63-.13-.66-.41-1.4-.94-2.15.21-.34.42-.68.63-1.02.9.11,1.68,0,2.33-.2.64-.19,1.13-.48,1.45-.72.33-.24.5-.43.5-.43,0,0,.57-2.16-1-4.27.21-.38.43-.76.64-1.14.86.05,1.59-.09,2.17-.32,1.23-.47,1.89-1.25,1.89-1.25,0,0,.47-2.11-1.11-4.1.21-.43.42-.86.62-1.29,2.52-.08,3.84-1.77,3.84-1.77,0,0,.18-1-.25-2.25-.18-.54-.51-1.14-1.01-1.72.2-.47.39-.94.58-1.41,2.45-.25,3.66-1.96,3.66-1.96,0,0,.03-.25,0-.66s-.1-.96-.38-1.58c-.23-.54-.6-1.12-1.13-1.67.16-.48.32-.95.47-1.43,2.47-.37,3.6-2.17,3.6-2.17,0,0,.03-.25-.03-.66-.07-.41-.21-.97-.5-1.57-.29-.58-.73-1.2-1.4-1.76.09-.41.18-.82.27-1.22.89-.14,1.61-.45,2.17-.81s.97-.77,1.24-1.09c.26-.32.36-.55.36-.55,0,0-.1-4.12-5.22-5.15l-1.78,7.34c1.07.3,1.99.36,2.79.3l.02.02Z" style="fill:#efefef;"/><path d="M70.29,224.96c.55-.39.91-.83,1.13-1.17.23-.34.33-.57.33-.57,0,0-.08-1.03-.82-2.14-.73-1.12-2.11-2.29-4.7-2.65l-1.3,7.43c2.56.54,4.28-.1,5.36-.89h0Z" style="fill:#efefef;"/><path d="M71.52,217.18c.98-.87,1.31-1.84,1.31-1.84,0,0-.15-1.02-.95-2.08s-2.25-2.14-4.86-2.32l-.81,7.49c2.58.37,4.28-.37,5.3-1.25h.01Z" style="fill:#efefef;"/><path d="M72.2,209.32c.92-.94,1.19-1.93,1.19-1.93,0,0-.21-1.01-1.08-2.01-.87-1.01-2.39-1.98-5-1.98l-.29,7.53c2.59.19,4.27-.66,5.17-1.61h.01Z" style="fill:#efefef;"/><path d="M70.51,202.8c.81-.37,1.4-.86,1.83-1.36.86-1,1.06-2.01,1.06-2.01,0,0-.28-.99-1.21-1.93s-2.51-1.81-5.12-1.62l.24,7.53c1.3,0,2.35-.23,3.19-.6h.01Z" style="fill:#efefef;"/><path d="M71.93,193.57c.79-1.06.92-2.08.92-2.08,0,0-.34-.97-1.34-1.84-.99-.88-2.63-1.63-5.21-1.26l.77,7.49c2.63-.17,4.06-1.25,4.85-2.31h.01Z" style="fill:#efefef;"/><path d="M8.04,198.31c1.33.02,2.21-.47,2.21-.47,0,0,.57-.84.65-2.17.1-1.32-.31-3.1-2.14-4.96l-5.46,5.02c1.68,1.99,3.42,2.55,4.75,2.57h-.01Z" style="fill:#efefef;"/><path d="M13.67,192.95c1.32-.07,2.18-.61,2.18-.61,0,0,.5-.89.51-2.2.02-1.31-.51-3.08-2.45-4.81l-5.15,5.39c1.82,1.86,3.6,2.3,4.92,2.23h0Z" style="fill:#efefef;"/><path d="M18.95,187.26c1.31-.15,2.13-.75,2.13-.75,0,0,.46-.9.37-2.23-.08-1.32-.69-3.03-2.74-4.64l-4.81,5.69c1.94,1.75,3.73,2.07,5.05,1.92h0Z" style="fill:#efefef;"/><path d="M23.86,181.23c.65-.11,1.18-.33,1.54-.52.35-.2.55-.36.55-.36,0,0,.38-.94.22-2.25-.15-1.3-.91-2.99-3.06-4.45l-4.4,5.99c2.05,1.62,3.84,1.82,5.15,1.59h0Z" style="fill:#efefef;"/><path d="M28.37,174.89c1.29-.32,2.01-1.03,2.01-1.03,0,0,.32-.97.08-2.26-.27-1.31-1.13-2.92-3.39-4.22l-3.96,6.27c2.15,1.48,3.97,1.56,5.26,1.24Z" style="fill:#efefef;"/><path d="M32.41,168.23c1.24-.43,1.92-1.19,1.92-1.19,0,0,.06-.25.08-.65.02-.41,0-.97-.19-1.61-.37-1.29-1.35-2.82-3.71-3.93l-3.45,6.53c2.25,1.32,4.08,1.27,5.34.85h.01Z" style="fill:#efefef;"/><path d="M35.91,161.25c1.2-.53,1.82-1.35,1.82-1.35,0,0,.04-.25.03-.66,0-.4-.08-.97-.33-1.59-.48-1.25-1.59-2.68-4.05-3.58l-2.86,6.78c2.34,1.12,4.19.94,5.39.4h0Z" style="fill:#efefef;"/><path d="M38.79,153.97c1.15-.64,1.69-1.52,1.69-1.52,0,0,.02-.26-.03-.66-.05-.4-.17-.96-.48-1.56-.6-1.2-1.85-2.52-4.38-3.16l-2.2,7c2.43.91,4.27.56,5.4-.09h0Z" style="fill:#efefef;"/><path d="M40.95,146.44c1.07-.76,1.52-1.7,1.52-1.7,0,0,0-.26-.1-.65-.1-.4-.25-.93-.63-1.5-.73-1.13-2.12-2.31-4.71-2.68l-1.45,7.16c2.51.66,4.3.13,5.37-.63h0Z" style="fill:#efefef;"/><path d="M42.31,138.7c.98-.88,1.31-1.86,1.31-1.86,0,0-.15-1.03-.96-2.06-.86-1.04-2.38-2.05-4.99-2.13l-.64,7.26c2.58.39,4.27-.33,5.28-1.21Z" style="fill:#efefef;"/><path d="M42.78,130.84c.48-.49.71-.99.88-1.37.16-.38.21-.63.21-.63,0,0-.28-1-1.21-1.94-.9-.94-2.6-1.76-5.18-1.53l.19,7.27c2.61.09,4.18-.82,5.11-1.81h0Z" style="fill:#efefef;"/><path d="M3.3,213.28c11.05-9.26,52.45-47.73,42.97-96.3-.59.22-1.2.44-1.8.65-.21.07-.41.14-.61.21-.8.28-1.6.55-2.41.81-.07.02-.15.05-.22.07.19.12.37.23.53.36,1.04.82,1.45,1.78,1.45,1.78,0,0-.02.26-.13.65-.12.4-.36.93-.75,1.47-.79,1.09-2.24,2.18-4.84,2.39l-.75-5.29c-5.11,1.44-10.36,2.55-15.72,3.32h-.05c-.94.13-1.88.26-2.83.37-.09.01-.18.02-.27.03-.88.1-1.76.2-2.64.28-.18.02-.35.03-.53.05-.79.07-1.59.14-2.39.2-.3.02-.6.04-.9.06-.69.04-1.37.09-2.06.12-.48.03-.96.04-1.44.06-.52.02-1.04.05-1.56.06-.95.03-1.9.04-2.85.04h-.4c-.95,0-1.9-.02-2.85-.04-.08,0-.17,0-.25,0v85.81c1.27,1.14,2.38,2.1,3.29,2.86h0Z" style="fill:none;"/><path d="M.65,222.52c-.06-.05-.29-.22-.65-.5v3.01c.53-.78.97-1.48,1.3-2.03l-.65-.48Z" style="fill:none;"/><path d="M3.29,121.99c1,0,2-.02,2.99-.04.48-.01.96-.03,1.44-.05.5-.02,1-.04,1.5-.06.64-.04,1.29-.08,1.93-.12.33-.02.65-.04.97-.06.76-.06,1.52-.12,2.27-.19.2-.02.4-.03.6-.05.85-.08,1.69-.17,2.53-.27.1-.02.21-.03.31-.04.91-.11,1.82-.23,2.73-.36.02-.01.05-.01.08-.01,5.71-.83,11.38-2.06,16.95-3.71.04-.01.07-.02.11-.03.86-.26,1.72-.53,2.58-.8.11-.03.23-.07.35-.11.77-.25,1.54-.51,2.31-.78.22-.07.43-.15.64-.22.66-.23,1.33-.47,1.99-.72.32-.12.64-.25.96-.37.55-.21,1.1-.42,1.64-.64.43-.17.87-.35,1.3-.53.42-.17.85-.35,1.27-.53.55-.24,1.09-.48,1.64-.72.31-.14.61-.27.91-.41.65-.3,1.3-.6,1.95-.91.2-.1.39-.19.58-.28.74-.36,1.48-.73,2.21-1.1.1-.05.2-.1.3-.15.81-.41,1.62-.84,2.42-1.27.03,0,.06-.03.08-.04,5.11-2.78,10-5.92,14.63-9.38,0-.01.03-.03.04-.03.75-.56,1.49-1.13,2.22-1.7.07-.06.14-.11.21-.17.67-.53,1.35-1.07,2.01-1.62.14-.12.28-.23.42-.35.6-.49,1.19-.99,1.78-1.5.22-.19.44-.39.67-.59.51-.44,1.01-.88,1.5-1.33.35-.32.7-.64,1.05-.97.37-.34.75-.68,1.11-1.03.68-.65,1.36-1.31,2.03-1.98l.2-.2c.67-.67,1.33-1.35,1.98-2.03.35-.37.69-.74,1.03-1.11.32-.35.65-.7.97-1.05.45-.5.89-1,1.33-1.5.19-.22.39-.44.59-.67.5-.59,1-1.18,1.5-1.78.12-.14.23-.28.35-.42.55-.66,1.09-1.33,1.62-2.01.06-.07.11-.14.17-.21.58-.73,1.14-1.47,1.7-2.21.01-.01.02-.03.03-.04,3.47-4.63,6.6-9.52,9.38-14.63,0-.03.03-.05.04-.08.43-.8.85-1.61,1.27-2.42.05-.1.1-.2.15-.3.37-.73.74-1.47,1.1-2.21.1-.2.19-.39.28-.58.31-.64.61-1.3.91-1.95.14-.3.28-.61.41-.91.25-.55.48-1.09.72-1.64.19-.43.36-.85.54-1.28.18-.43.36-.87.53-1.3.22-.54.43-1.09.64-1.64.13-.32.25-.64.37-.96.24-.66.48-1.32.72-1.99.07-.21.15-.43.22-.64.27-.77.53-1.54.78-2.31.03-.11.07-.23.11-.35.28-.86.54-1.72.8-2.58.01-.04.02-.07.03-.11,1.65-5.57,2.88-11.24,3.71-16.95.01-.02.01-.05.01-.08.13-.91.25-1.83.36-2.74.01-.11.02-.21.03-.31.1-.84.19-1.69.27-2.53.02-.2.03-.4.05-.6.07-.76.13-1.51.19-2.27.02-.32.04-.64.06-.96.05-.65.09-1.29.12-1.94.03-.5.04-1,.06-1.5.02-.48.04-.96.05-1.44.03-1,.04-1.99.04-2.99,0-.45-.01-.9-.02-1.35H0v121.94c.1,0,.2,0,.3.01,1,.03,1.99.04,2.99.04Z" style="fill:none;"/><path d="M1.93,227.14c-.56.81-1.21,1.69-1.93,2.59v19.97c1.15-2.83,1.93-6.08,1.93-9.72v-12.83Z" style="fill:none;"/><path d="M126.59,4.4c-.01.47-.03.95-.05,1.42-.02.53-.03,1.05-.06,1.58-.03.66-.08,1.32-.12,1.97-.02.33-.04.66-.06.99-.05.78-.12,1.56-.19,2.33-.02.2-.03.4-.05.6-.08.86-.18,1.73-.28,2.59-.02.11-.03.21-.04.31-.11.94-.24,1.87-.37,2.8-.01.03-.01.06-.01.09-.77,5.36-1.88,10.6-3.32,15.71l5.29.75c-.21,2.6-1.3,4.04-2.39,4.83-.54.39-1.08.62-1.47.75-.39.11-.65.13-.65.13,0,0-.96-.4-1.78-1.45-.13-.16-.25-.34-.36-.53-.03.08-.05.16-.08.24-.26.79-.52,1.59-.8,2.38-.07.21-.15.42-.22.63-.22.6-.43,1.2-.65,1.79,48.56,9.48,87.03-31.91,96.29-42.96v-.02c-.34-.4-.72-.85-1.13-1.33h-87.48c.02,1.47.01,2.93-.02,4.4Z" style="fill:none;"/><path d="M1.92,268.29v-16.08c-.59,1.27-1.24,2.45-1.92,3.53v14.44c.59-.84,1.23-1.51,1.92-1.9Z" style="fill:none;"/><path d="M0,334.12h.06s-.04-.03-.06-.05v.05Z" style="fill:none;"/><path d="M281.89,7.72c-3.74,0-10.03-2.13-11.66-4.98h-16.08c5.05,2.34,8.67,5.68,10.69,7.88,2.25.08,5.55,2.04,7.06,3.74,1.97,2.2,0,2.91-1.79,4.5-1.79,1.6-2.72,3.47-4.68,1.27-1.61-1.82-3.3-5.69-2.84-7.89-3.23-3.4-10.45-9.5-20.68-9.5h-12.84c5.59,3.87,14.49,11.8,12.35,22.05l-.09.44-.34.3c-.25.23-3.63,3.12-9.81,3.12-3.01,0-6.7-.69-11.01-2.71,3.58,4.81,6.33,11.11,3.94,17.77l-.15.42-.37.25c-.24.16-2.98,1.92-7.56,1.92-3.56,0-8.24-1.08-13.72-4.8,2.59,5.35,4.07,11.98.54,18.03l-.23.39-.41.18c-.19.08-1.93.79-4.68.79-3.76,0-9.42-1.34-15.62-7.43.95,3.03,1.54,6.36,1.21,9.64l7.21,1.26c-.35,2.59-1.53,3.96-2.64,4.67-1.11.71-2.14.78-2.14.78,0,0-.95-.41-1.75-1.46-.53-.69-.98-1.66-1.08-2.97-.49,2.06-1.4,4.07-2.88,5.93l-.28.35-.44.12s-.18.04-.36.08v.02C262.08,88.62,326.2,11.4,334.12,1.37c-.29-.37-.66-.83-1.1-1.37h-47.91c-.03.44-.05.9-.05,1.37,0,3.51,1.15,6.35-3.17,6.35Z" style="fill:none;"/><path d="M197.68,34.11c12.96,12.74,22.11,9.18,24.02,8.21,3.26-10.4-8.72-20.41-11.57-22.61-4.03,3.83-8.84,8.01-14.35,12.11h0c.49.55,1.15,1.33,1.89,2.29Z" style="fill:none;"/><path d="M200.72,57.72c4.17-7.84-1.63-17.26-5.24-21.95-.69-.69-1.4-1.43-2.11-2.21h0c-5.28,3.76-10.63,7.02-16.03,9.78,10.93,17.05,21.19,15.05,23.38,14.38Z" style="fill:none;"/><path d="M153.15,151.21h.03c1.26-14.36,3.32-70.82-37.72-98.46-.26.57-.53,1.14-.8,1.7-.1.21-.2.41-.3.62-.36.75-.73,1.5-1.11,2.24-.04.07-.08.15-.12.23.22-.05.43-.1.63-.12,1.31-.16,2.28.23,2.28.23,0,0,.17.2.37.55.18.37.4.91.5,1.57.21,1.33-.04,3.12-1.73,5.11l-4.27-3.21c-2.6,4.63-5.52,9.12-8.76,13.45-.03.03-.05.06-.07.09-.55.74-1.12,1.48-1.7,2.22-.07.09-.14.17-.21.26-.53.67-1.07,1.34-1.62,2.01-.13.16-.27.32-.4.48-.49.59-.99,1.18-1.49,1.76-.23.26-.46.52-.69.78-.42.48-.85.96-1.28,1.44-.36.4-.73.79-1.1,1.19-.31.34-.62.68-.94,1.01-1.41,1.48-2.85,2.92-4.33,4.33-.33.32-.67.63-1.01.94-.39.36-.79.74-1.19,1.1-.48.43-.97.85-1.45,1.28-.25.23-.51.46-.77.68-.58.51-1.17,1-1.76,1.49-.17.14-.33.28-.49.41-.67.55-1.34,1.09-2.01,1.62-.09.07-.18.14-.27.21-.74.58-1.48,1.14-2.22,1.7-.03.02-.06.05-.09.07-4.33,3.24-8.82,6.16-13.45,8.76l3.21,4.27c-1.99,1.69-3.78,1.94-5.11,1.73-.66-.1-1.2-.31-1.57-.5-.36-.2-.55-.37-.55-.37,0,0-.39-.96-.23-2.28.02-.2.07-.42.12-.63-.08.04-.16.08-.24.12-.73.38-1.48.75-2.22,1.11-.21.1-.42.2-.63.3-.56.26-1.12.53-1.69.79,27.69,41.11,84.1,39,98.45,37.72Z" style="fill:none;"/><path d="M5.93,222.53h-.01l-.55.41c2.37,3.96,10.31,15.67,20.44,13.96,1.33-1.84,6.49-10.92-6.15-26.66-7.55,7.66-13.34,12-13.73,12.29Z" style="fill:none;"/><path d="M56.46,134.33c-.2,5.9-1.01,11.84-2.43,17.76,6,2.64,10.25,5.52,13.23,8.37l-10.8-26.13Z" style="fill:none;"/><path d="M177.99,69.22c6.09-8.32-.83-20.67-3.3-24.54-5.94,2.85-11.92,5.09-17.92,6.71h0c8.38,18.61,19,18.16,21.22,17.83Z" style="fill:none;"/><path d="M154.08,52.06c-5.94,1.43-11.89,2.25-17.82,2.45h0l26.47,11c-2.93-2.98-5.92-7.28-8.64-13.45Z" style="fill:none;"/><path d="M145.75,72.07c6.11-2.38,11.15-3.35,15.28-3.44l-26.14-10.85c4.04,4.32,7.66,9.09,10.85,14.29h0Z" style="fill:none;"/><path d="M3.28,332.17c10.02-7.9,87.02-71.87,70.58-155.01h0s-.12.45-.12.45l-.35.28c-1.87,1.48-3.89,2.39-5.96,2.89,1.25.11,2.19.55,2.86,1.07,1.05.81,1.46,1.75,1.46,1.75,0,0-.07,1.03-.78,2.14-.72,1.11-2.08,2.28-4.67,2.64l-1.26-7.21c-.57.05-1.15.09-1.73.09-2.67,0-5.33-.54-7.78-1.31,10.55,10.72,6.85,19.85,6.65,20.32l-.18.41-.39.23c-2.55,1.49-5.2,2.09-7.82,2.09-3.59,0-7.11-1.13-10.21-2.63,8.5,12.53,3.17,20.86,2.88,21.29l-.25.37-.42.15c-1.74.63-3.45.9-5.12.9-4.74,0-9.11-2.19-12.67-4.84,6.16,13.16-.06,20.44-.4,20.82l-.3.34-.44.09c-1.07.22-2.11.32-3.12.32-8.86,0-15.66-7.89-19.08-12.89v13.05c0,10.23,6.1,17.45,9.5,20.68,2.2-.46,6.07,1.22,7.89,2.84,2.2,1.97.32,2.89-1.27,4.68s-2.3,3.76-4.5,1.79c-1.7-1.52-3.66-4.81-3.74-7.06-2.2-2.02-5.54-5.64-7.88-10.69v16.08c2.85,1.62,4.98,7.92,4.98,11.66,0,4.32-2.84,3.17-6.35,3.17-1.21,0-2.33.13-3.29.14v46.24c1.42,1.19,2.54,2.1,3.29,2.69h-.01Z" style="fill:none;"/><path d="M91.89,231.5c2.17.42,4.15,1.26,5.9,2.39h0s-18.61-44.67-18.61-44.67c1.52,16.55-.4,32.23-4.5,46.75,4.61-3.87,10.85-5.71,17.21-4.47Z" style="fill:none;"/><path d="M78.84,172.87h0c10.16-1.58,14.01-15.19,15.01-19.68-6.22-2.18-12.02-4.85-17.41-7.95-7.25,19.09.59,26.29,2.39,27.63Z" style="fill:none;"/><path d="M33.81,193.77c-4.09,5.51-8.26,10.31-12.09,14.34h0c2.06,2.69,12.18,14.95,22.68,11.65,1.01-1.93,4.62-10.99-8.21-24.02-1.03-.79-1.83-1.48-2.38-1.97Z" style="fill:none;"/><path d="M262.71,63.36c25.64,24.26,35.54,58.43,35.64,58.78l.36,1.26-1.11.71c-.31.19-30.5,19.25-65.85,20.33,15.27,46.33,8.93,91.97,8.82,92.69l-.19,1.3-1.3.19c-.33.05-10.02,1.4-24.87,1.4-18.49,0-44.97-2.1-71.31-11.41.97,35.28-16.19,66.45-16.37,66.77l-.64,1.15-1.28-.28c-.36-.08-35.18-7.95-60.94-32.19-18.95,37.57-48.87,63.38-57.13,70.06h327.58V6.97c-9.19,10.92-35.1,39.04-71.41,56.39Z" style="fill:none;"/><path d="M45.34,175.34c-2.75,5.39-6.01,10.73-9.77,16.01.81.73,1.57,1.46,2.29,2.18h-.01c4.7,3.6,14.13,9.42,21.96,5.25.67-2.17,2.7-12.47-14.47-23.44Z" style="fill:none;"/><path d="M53.35,154.77c-1.62,6-3.85,11.98-6.69,17.91h0c3.75,2.4,16.27,9.5,24.65,3.36.36-2.26.88-12.84-17.96-21.27Z" style="fill:none;"/><path d="M59.72,132.96l10.94,26.5c.03-4.18.96-9.34,3.4-15.62-5.22-3.2-10.01-6.83-14.34-10.88Z" style="fill:none;"/><path d="M233.44,89.83h0c-1.05-5.4.07-10.9,3.15-15.47.36-.55.75-1.06,1.16-1.56-11.13,3.12-22.94,4.98-35.3,4.98-3.72,0-7.48-.18-11.29-.53l44.58,18.36c-1.1-1.75-1.89-3.69-2.3-5.78Z" style="fill:none;"/><path d="M105.13,251.46c-1.38,6.42-7.08,10.87-13.44,10.87-.87,0-1.75-.08-2.63-.25-2.96-.57-5.53-2.27-7.22-4.78s-2.31-5.52-1.73-8.49c.99-5.06,5.9-8.38,10.98-7.4,4.22.83,6.99,4.93,6.17,9.15-.34,1.72-1.32,3.2-2.77,4.18-1.45.98-3.19,1.33-4.91,1-3.01-.58-4.97-3.5-4.39-6.5.5-2.57,2.99-4.24,5.57-3.75,2.23.44,3.68,2.6,3.25,4.82-.16.84-.96,1.38-1.81,1.22-.84-.16-1.38-.97-1.22-1.81.1-.55-.26-1.08-.81-1.19-.89-.17-1.76.41-1.94,1.31-.26,1.33.61,2.62,1.94,2.88.9.18,1.82-.01,2.59-.53s1.28-1.3,1.46-2.21c.5-2.55-1.17-5.03-3.72-5.52-3.39-.66-6.7,1.56-7.36,4.96-.42,2.15.02,4.35,1.25,6.17,1.23,1.83,3.09,3.06,5.25,3.48,5.77,1.12,11.4-2.66,12.52-8.44.7-3.6-.04-7.26-2.09-10.3s-5.16-5.1-8.76-5.8c-8.13-1.58-16.04,2.75-19.32,9.98-.31.88-.63,1.76-.95,2.63-.11.42-.23.83-.31,1.26-.06.32-.24.57-.45.78v-.03c-1.52,3.96-3.2,7.81-4.99,11.55,20.52,19.74,47.34,28.57,56.68,31.18l-16.84-40.42Z" style="fill:none;"/><path d="M236.49,89.24c.7,3.6,2.76,6.71,5.8,8.76.72.49,1.47.89,2.25,1.23l.32.13c2.43.98,5.09,1.25,7.72.73,5.78-1.12,9.56-6.73,8.44-12.51-.42-2.16-1.66-4.02-3.48-5.25-1.82-1.22-4.01-1.67-6.17-1.25-3.4.66-5.62,3.97-4.96,7.36.49,2.55,2.96,4.23,5.52,3.73,1.88-.37,3.1-2.19,2.74-4.06-.25-1.33-1.55-2.2-2.88-1.94-.44.08-.81.33-1.06.7-.25.36-.34.81-.25,1.24.1.55.64.91,1.19.8.85-.16,1.65.38,1.81,1.22.16.84-.38,1.65-1.22,1.81-2.23.43-4.39-1.03-4.82-3.25-.25-1.24.01-2.51.72-3.56.71-1.06,1.79-1.77,3.03-2.01,2.99-.57,5.93,1.39,6.51,4.39.69,3.54-1.64,6.99-5.18,7.68-4.23.81-8.33-1.95-9.15-6.17-.99-5.07,2.33-9.99,7.4-10.98,2.97-.58,5.98.04,8.49,1.73,2.5,1.69,4.2,4.25,4.78,7.22,1.42,7.27-3.21,14.33-10.36,16.01l40.08,16.51h.02c-3.28-9.42-13.75-35.45-34.53-54.56-2.72,1.22-5.48,2.38-8.3,3.46-.17.12-.37.22-.59.26-.07,0-.15.03-.22.05-1.54.59-3.11,1.14-4.68,1.68-2.51,1.33-4.67,3.26-6.3,5.68-2.62,3.89-3.57,8.56-2.67,13.16Z" style="fill:none;"/><path d="M177.71,76.19l-.05.45c-.27,2.36-1.06,4.43-2.17,6.25.96-.8,1.93-1.15,2.77-1.26,1.31-.18,2.27.2,2.27.2,0,0,.68.77.96,2.06.29,1.3.15,3.09-1.43,5.17l-5.99-4.2c-2.07,2.49-4.8,4.4-7.57,5.85,15.02.13,18.86,9.19,19.05,9.67l.17.42-.11.44c-1.78,6.77-7.51,10.41-13.12,12.37,14.85,2.86,16.97,12.52,17.07,13.02l.09.44-.19.41c-3.02,6.4-9.43,8.91-15.37,9.78,13.67,4.95,14.42,14.51,14.45,15.01l.03.45-.25.38c-3.93,6-10.76,7.57-16.82,7.57-2.9,0-5.61-.36-7.76-.76l9.23,9.23c7.24,7.24,16.66,8.03,21.35,7.91,1.23-1.88,5.16-3.43,7.59-3.57,2.94-.17,2.27,1.81,2.41,4.2.13,2.39,1.03,4.28-1.92,4.45-2.28.13-5.99-.82-7.64-2.35-.45.02-.93.03-1.46.03-3,0-7.22-.38-11.67-2.01l11.37,11.37c3.16-.86,9.12,2.08,11.77,4.73,3.06,3.05.24,4.25-2.24,6.73-2.48,2.47-3.67,5.3-6.73,2.24-2.65-2.65-5.59-8.61-4.73-11.77l-11.37-11.37c1.91,5.22,2.11,10.14,1.98,13.13,1.53,1.65,2.47,5.37,2.34,7.64-.17,2.94-2.06,2.04-4.45,1.91s-4.37.54-4.2-2.41c.14-2.43,1.69-6.36,3.57-7.59.12-4.68-.67-14.11-7.9-21.34l-9.08-9.08c1.22,6.69,1.9,18.59-6.86,24.33l-.38.25-.45-.03c-.51-.03-10.06-.78-15.01-14.45-.87,5.94-3.38,12.36-9.78,15.38l-.41.19-.44-.09c-.51-.1-10.17-2.22-13.02-17.07-1.96,5.61-5.6,11.34-12.37,13.12l-.44.11-.42-.17c-.47-.19-9.53-4.02-9.66-19.05-1.46,2.81-3.41,5.58-5.96,7.67l4.21,5.99c-2.08,1.58-3.88,1.71-5.17,1.43s-2.06-.96-2.06-.96c0,0-.37-.96-.2-2.27.11-.86.48-1.87,1.34-2.86-1.81,1.1-3.87,1.88-6.23,2.15l-.45.05-.39-.22s-.15-.09-.31-.2c47.08,70.72,146.9,61.51,159.69,60,1.5-12.78,10.66-112.35-59.7-159.49l.22.39Z" style="fill:none;"/><path d="M117.58,161.96c.14,18.27,9.08,22.13,11.18,22.79,9.69-5.05,8.27-20.61,7.81-24.17-5.56-.14-11.91-.58-18.71-1.58h0c-.04.73-.13,1.75-.28,2.96Z" style="fill:none;"/><path d="M103.03,180.83c8.48-2.59,11.04-13.33,11.81-19.2,0-.99.02-2.02.07-3.09-6.4-1.08-12.48-2.57-18.25-4.43h0c-4.33,19.8,4.35,25.65,6.37,26.72Z" style="fill:none;"/><path d="M228.69,101.43c1.8-1.21,3.78-2.04,5.84-2.49l-44.71-18.41c12.78,10.62,22.5,23.07,29.87,36.23.52-5.99,3.63-11.71,9-15.33Z" style="fill:none;"/><path d="M130.97,223.91c-.21-.04-.41-.11-.6-.24-.07-.05-.14-.08-.21-.13-1.51-.68-3.01-1.39-4.5-2.12-2.71-.83-5.59-.99-8.45-.43-4.6.89-8.58,3.52-11.2,7.41-2.05,3.03-2.79,6.69-2.09,10.29.17.85.42,1.68.73,2.47l.12.29c1.03,2.42,2.72,4.5,4.95,6,4.88,3.3,11.53,2,14.82-2.88,2.54-3.76,1.54-8.88-2.22-11.42-1.39-.94-3.06-1.28-4.71-.96-1.64.32-3.06,1.26-4,2.65-.7,1.04-.96,2.29-.72,3.53.24,1.23.95,2.3,1.99,3,.77.53,1.7.71,2.6.53.91-.17,1.69-.69,2.21-1.46.38-.54.5-1.2.38-1.84-.13-.65-.5-1.2-1.04-1.57-.36-.25-.81-.33-1.24-.25-.44.08-.81.33-1.06.7-.16.22-.21.49-.16.76s.2.5.43.65c.71.48.9,1.44.42,2.15-.48.71-1.44.9-2.15.42-.9-.61-1.52-1.54-1.73-2.62s.01-2.17.62-3.08c.71-1.05,1.79-1.77,3.03-2.01,1.25-.25,2.51,0,3.56.72,1.22.83,2.06,2.09,2.34,3.54.28,1.45-.02,2.93-.85,4.16-.98,1.45-2.46,2.44-4.18,2.77-1.71.33-3.46-.02-4.91-1-1.73-1.17-2.9-2.93-3.3-4.98-.4-2.04.03-4.12,1.19-5.85,1.4-2.08,3.53-3.48,5.98-3.96s4.95.03,7.02,1.43c5.18,3.49,6.55,10.53,3.06,15.71-2.65,3.93-7.01,6.06-11.43,6.06-2.47,0-4.97-.67-7.21-2.06l16.67,40.01c4.34-8.99,15.33-34.78,14.15-62.97-2.78-1.05-5.55-2.19-8.31-3.42Z" style="fill:none;"/><path d="M248.32,125.1c-5.17,3.49-12.22,2.12-15.71-3.06-1.4-2.07-1.91-4.57-1.43-7.02.48-2.46,1.89-4.58,3.96-5.98,1.73-1.17,3.81-1.58,5.85-1.19,2.05.4,3.82,1.57,4.98,3.3,2.02,2.99,1.22,7.07-1.77,9.09-1.23.82-2.71,1.12-4.16.84-1.45-.29-2.71-1.12-3.54-2.35-.71-1.05-.96-2.31-.72-3.56s.96-2.32,2.01-3.03c1.88-1.27,4.43-.76,5.7,1.11.47.71.29,1.67-.42,2.15-.72.47-1.68.29-2.15-.42-.15-.23-.38-.38-.65-.43-.27-.04-.54,0-.76.16-.37.25-.61.62-.7,1.06-.09.43,0,.87.25,1.24.37.54.93.91,1.57,1.04.64.12,1.3-.01,1.84-.38.76-.52,1.28-1.3,1.46-2.21.18-.9-.01-1.82-.53-2.59-1.45-2.15-4.38-2.72-6.54-1.27-1.39.93-2.33,2.35-2.65,4-.32,1.65.02,3.32.96,4.71,2.53,3.76,7.66,4.76,11.42,2.22,4.88-3.3,6.17-9.94,2.88-14.82-2.05-3.04-5.16-5.1-8.76-5.8-3.6-.7-7.26.04-10.3,2.09-3.88,2.62-6.51,6.6-7.41,11.2-.63,3.23-.33,6.49.8,9.49.41.85.81,1.71,1.21,2.57.21.37.42.74.66,1.1.18.27.24.57.24.87h.02c1.71,3.89,3.25,7.8,4.63,11.71,28.46-.55,53.67-13.28,62.12-18.03l-40.5-16.68c4.05,6.27,2.35,14.68-3.86,18.87Z" style="fill:none;"/><path d="M118.57,217.67c-13.11-7.36-25.51-17.06-36.1-29.79l18.53,44.49c.45-2.01,1.27-3.95,2.46-5.71,3.58-5.3,9.2-8.41,15.11-8.99Z" style="fill:none;"/><path d="M139.53,160.63c2.22,19.85,12.3,22.7,14.49,23.09,8.32-5.93,5.74-19.68,4.6-24.23l-.8.12c-.46.06-7.12,1.02-17.23,1.02h-1.06Z" style="fill:none;"/><path d="M161.45,156.56c4.47,1.13,18.35,3.79,24.32-4.58-.36-2.24-3.13-12.3-23.2-14.5.08,10.76-.95,17.92-1.02,18.4l-.1.68Z" style="fill:none;"/><path d="M174.92,76.79c-1.35-1.85-8.46-9.71-27.76-2.33,3.09,5.38,5.76,11.17,7.95,17.38,4.36-.95,18.22-4.78,19.81-15.05Z" style="fill:none;"/><path d="M186.79,126.72c-.65-2.08-4.52-11.04-22.79-11.18-1.27.16-2.33.25-3.07.29,1,6.79,1.45,13.13,1.59,18.69,3.35.44,19.18,1.97,24.27-7.8Z" style="fill:none;"/><path d="M238.82,23.73c1.7-10.08-9.86-17.98-13.88-20.39l-.48.65c-.29.38-4.6,6.14-12.21,13.65h-.01c15.68,12.54,24.73,7.42,26.58,6.09Z" style="fill:none;"/><path d="M182.86,100.99c-1.06-2.02-6.92-10.74-26.84-6.34,1.86,5.76,3.35,11.84,4.43,18.23,1.1-.06,2.16-.08,3.18-.08h0c5.87-.77,16.64-3.33,19.23-11.81Z" style="fill:none;"/><path d="M334.12,0h-1.1c.44.54.81,1,1.1,1.37V0Z" style="fill:#efefef;"/><path d="M63.67,264.06c25.76,24.24,60.58,32.11,60.94,32.19l1.28.28.64-1.15c.18-.32,17.34-31.49,16.37-66.77,26.34,9.31,52.82,11.41,71.31,11.41,14.85,0,24.54-1.35,24.87-1.4l1.3-.19.19-1.3c.11-.72,6.45-46.36-8.82-92.69,35.35-1.08,65.54-20.14,65.85-20.33l1.11-.71-.36-1.26c-.1-.35-10-34.52-35.64-58.78,36.31-17.35,62.23-45.47,71.41-56.39V1.37c-7.92,10.03-72.04,87.25-155.36,70.51v-.02c.18-.04.31-.07.36-.08l.44-.12.28-.35c1.48-1.86,2.39-3.87,2.88-5.93.1,1.31.55,2.28,1.08,2.97.8,1.05,1.75,1.46,1.75,1.46,0,0,1.03-.07,2.14-.78,1.11-.71,2.29-2.08,2.64-4.67l-7.21-1.26c.33-3.28-.26-6.61-1.21-9.64,6.2,6.09,11.86,7.43,15.62,7.43,2.75,0,4.49-.71,4.68-.79l.41-.18.23-.39c3.53-6.05,2.05-12.68-.54-18.03,5.48,3.72,10.16,4.8,13.72,4.8,4.58,0,7.32-1.76,7.56-1.92l.37-.25.15-.42c2.39-6.66-.36-12.96-3.94-17.77,4.31,2.02,8,2.71,11.01,2.71,6.18,0,9.56-2.89,9.81-3.12l.34-.3.09-.44c2.14-10.25-6.76-18.18-12.35-22.05h12.84c10.23,0,17.45,6.1,20.68,9.5-.46,2.2,1.23,6.07,2.84,7.89,1.96,2.2,2.89.33,4.68-1.27,1.79-1.59,3.76-2.3,1.79-4.5-1.51-1.7-4.81-3.66-7.06-3.74-2.02-2.2-5.64-5.54-10.69-7.88h16.08c1.63,2.85,7.92,4.98,11.66,4.98,4.32,0,3.17-2.84,3.17-6.35,0-.47.02-.93.05-1.37h-71.02c.41.48.8.93,1.13,1.33v.02c-9.26,11.05-47.73,52.44-96.29,42.96.22-.59.43-1.19.65-1.79.07-.21.15-.42.22-.63.28-.79.54-1.59.8-2.38.03-.08.05-.16.08-.24.11.19.23.37.36.53.82,1.05,1.78,1.45,1.78,1.45,0,0,.26-.02.65-.13.39-.13.93-.36,1.47-.75,1.09-.79,2.18-2.23,2.39-4.83l-5.29-.75c1.44-5.11,2.55-10.35,3.32-15.71,0-.03,0-.06.01-.09.13-.93.26-1.86.37-2.8.01-.1.02-.2.04-.31.1-.86.2-1.73.28-2.59.02-.2.03-.4.05-.6.07-.77.14-1.55.19-2.33.02-.33.04-.66.06-.99.04-.65.09-1.31.12-1.97.03-.53.04-1.05.06-1.58.02-.47.04-.95.05-1.42.04-1.47.04-2.93.02-4.4h-2.71c0,.45.02.9.02,1.35,0,1-.01,1.99-.04,2.99-.01.48-.03.96-.05,1.44-.02.5-.03,1-.06,1.5-.03.65-.07,1.29-.12,1.94-.02.32-.04.64-.06.96-.06.76-.12,1.51-.19,2.27-.02.2-.03.4-.05.6-.08.84-.17,1.69-.27,2.53-.01.1-.02.2-.03.31-.11.91-.23,1.83-.36,2.74,0,.03,0,.06-.01.08-.83,5.71-2.06,11.38-3.71,16.95-.01.04-.02.07-.03.11-.26.86-.52,1.72-.8,2.58-.04.12-.08.24-.11.35-.25.77-.51,1.54-.78,2.31-.07.21-.15.43-.22.64-.24.67-.48,1.33-.72,1.99-.12.32-.24.64-.37.96-.21.55-.42,1.1-.64,1.64-.17.43-.35.87-.53,1.3-.18.43-.35.85-.54,1.28-.24.55-.47,1.09-.72,1.64-.13.3-.27.61-.41.91-.3.65-.6,1.31-.91,1.95-.09.19-.18.38-.28.58-.36.74-.73,1.48-1.1,2.21-.05.1-.1.2-.15.3-.42.81-.84,1.62-1.27,2.42-.01.03-.03.05-.04.08-2.78,5.11-5.91,10-9.38,14.63-.01.01-.02.03-.03.04-.56.74-1.12,1.48-1.7,2.21-.06.07-.11.14-.17.21-.53.68-1.07,1.35-1.62,2.01-.12.14-.23.28-.35.42-.5.6-1,1.19-1.5,1.78-.2.23-.4.45-.59.67-.44.5-.88,1-1.33,1.5-.32.35-.65.7-.97,1.05-.34.37-.68.74-1.03,1.11-.65.68-1.31,1.36-1.98,2.03l-.2.2c-.67.67-1.35,1.33-2.03,1.98-.36.35-.74.69-1.11,1.03-.35.33-.7.65-1.05.97-.49.45-.99.89-1.5,1.33-.23.2-.45.4-.67.59-.59.51-1.18,1.01-1.78,1.5-.14.12-.28.23-.42.35-.66.55-1.34,1.09-2.01,1.62-.07.06-.14.11-.21.17-.73.57-1.47,1.14-2.22,1.7-.01,0-.03.02-.04.03-4.63,3.46-9.52,6.6-14.63,9.38-.02.01-.05.03-.08.04-.8.43-1.61.86-2.42,1.27-.1.05-.2.1-.3.15-.73.37-1.47.74-2.21,1.1-.19.09-.38.18-.58.28-.65.31-1.3.61-1.95.91-.3.14-.6.27-.91.41-.55.24-1.09.48-1.64.72-.42.18-.85.36-1.27.53-.43.18-.87.36-1.3.53-.54.22-1.09.43-1.64.64-.32.12-.64.25-.96.37-.66.25-1.33.49-1.99.72-.21.07-.42.15-.64.22-.77.27-1.54.53-2.31.78-.12.04-.24.08-.35.11-.86.27-1.72.54-2.58.8-.04.01-.07.02-.11.03-5.57,1.65-11.24,2.88-16.95,3.71-.03,0-.06,0-.08.01-.91.13-1.82.25-2.73.36-.1.01-.21.02-.31.04-.84.1-1.68.19-2.53.27-.2.02-.4.03-.6.05-.75.07-1.51.13-2.27.19-.32.02-.64.04-.97.06-.64.04-1.29.08-1.93.12-.5.02-1,.04-1.5.06-.48.02-.96.04-1.44.05-.99.02-1.99.04-2.99.04s-1.99-.01-2.99-.04c-.1,0-.2,0-.3-.01v2.68c.08,0,.17,0,.25,0,.95.02,1.9.03,2.85.04h.4c.95,0,1.9-.01,2.85-.04.52-.01,1.04-.04,1.56-.06.48-.02.96-.03,1.44-.06.69-.03,1.37-.08,2.06-.12.3-.02.6-.04.9-.06.8-.06,1.6-.13,2.39-.2.18-.02.35-.03.53-.05.88-.08,1.76-.18,2.64-.28.09-.01.18-.02.27-.03.95-.11,1.89-.24,2.83-.37h.05c5.36-.77,10.61-1.88,15.72-3.32l.75,5.29c2.6-.21,4.05-1.3,4.84-2.39.39-.54.63-1.07.75-1.47.11-.39.13-.65.13-.65,0,0-.41-.96-1.45-1.78-.16-.13-.34-.24-.53-.36.07-.02.15-.05.22-.07.81-.26,1.61-.53,2.41-.81.2-.07.4-.14.61-.21.6-.21,1.21-.43,1.8-.65,9.48,48.57-31.92,87.04-42.97,96.3h0c-.91-.75-2.02-1.71-3.29-2.85v11.59c.36.28.59.45.65.5l.65.48c-.33.55-.77,1.25-1.3,2.03v4.7c.72-.9,1.37-1.78,1.93-2.59v12.83c0,3.64-.78,6.89-1.93,9.72v6.05c.68-1.09,1.33-2.26,1.92-3.53v16.08c-.69.39-1.33,1.06-1.92,1.9v13.07c.96,0,2.08-.14,3.29-.14,3.51,0,6.35,1.15,6.35-3.17,0-3.74-2.13-10.04-4.98-11.66v-16.08c2.34,5.05,5.68,8.67,7.88,10.69.08,2.25,2.04,5.54,3.74,7.06,2.2,1.97,2.91,0,4.5-1.79s3.47-2.71,1.27-4.68c-1.82-1.62-5.69-3.3-7.89-2.84-3.4-3.23-9.5-10.45-9.5-20.68v-13.05c3.42,5,10.22,12.89,19.08,12.89,1.01,0,2.05-.1,3.12-.32l.44-.09.3-.34c.34-.38,6.56-7.66.4-20.82,3.56,2.65,7.93,4.84,12.67,4.84,1.67,0,3.38-.27,5.12-.9l.42-.15.25-.37c.29-.43,5.62-8.76-2.88-21.29,3.1,1.5,6.62,2.63,10.21,2.63,2.62,0,5.27-.6,7.82-2.09l.39-.23.18-.41c.2-.47,3.9-9.6-6.65-20.32,2.45.77,5.11,1.31,7.78,1.31.58,0,1.16-.04,1.73-.09l1.26,7.21c2.59-.36,3.95-1.53,4.67-2.64.71-1.11.78-2.14.78-2.14,0,0-.41-.94-1.46-1.75-.67-.52-1.61-.96-2.86-1.07,2.07-.5,4.09-1.41,5.96-2.89l.35-.28.12-.44h0C90.3,260.3,13.3,324.27,3.28,332.17h.01c-.75-.58-1.87-1.48-3.29-2.68v4.58s.04.03.06.05h6.49c8.26-6.68,38.18-32.49,57.13-70.06ZM125.13,290.3l-16.67-40.01c2.24,1.39,4.74,2.06,7.21,2.06,4.42,0,8.78-2.13,11.43-6.06,3.49-5.18,2.12-12.22-3.06-15.71-2.07-1.4-4.57-1.91-7.02-1.43s-4.58,1.88-5.98,3.96c-1.16,1.73-1.59,3.81-1.19,5.85.4,2.05,1.57,3.81,3.3,4.98,1.45.98,3.2,1.33,4.91,1,1.72-.33,3.2-1.32,4.18-2.77.83-1.23,1.13-2.71.85-4.16-.28-1.45-1.12-2.71-2.34-3.54-1.05-.71-2.31-.97-3.56-.72-1.24.24-2.32.96-3.03,2.01-.61.91-.83,2-.62,3.08s.83,2.01,1.73,2.62c.71.48,1.67.29,2.15-.42.48-.71.29-1.67-.42-2.15-.23-.15-.38-.38-.43-.65s0-.54.16-.76c.25-.37.62-.62,1.06-.7.43-.08.88,0,1.24.25.54.37.91.92,1.04,1.57.12.64,0,1.3-.38,1.84-.52.77-1.3,1.29-2.21,1.46-.9.18-1.83,0-2.6-.53-1.04-.7-1.75-1.77-1.99-3-.24-1.24.02-2.49.72-3.53.94-1.39,2.36-2.33,4-2.65,1.65-.32,3.32.02,4.71.96,3.76,2.54,4.76,7.66,2.22,11.42-3.29,4.88-9.94,6.18-14.82,2.88-2.23-1.5-3.92-3.58-4.95-6l-.12-.29c-.31-.79-.56-1.62-.73-2.47-.7-3.6.04-7.26,2.09-10.29,2.62-3.89,6.6-6.52,11.2-7.41,2.86-.56,5.74-.4,8.45.43,1.49.73,2.99,1.44,4.5,2.12.07.05.14.08.21.13.19.13.39.2.6.24,2.76,1.23,5.53,2.37,8.31,3.42,1.18,28.19-9.81,53.98-14.15,62.97ZM101,232.37l-18.53-44.49c10.59,12.73,22.99,22.43,36.1,29.79-5.91.58-11.53,3.69-15.11,8.99-1.19,1.76-2.01,3.7-2.46,5.71ZM230.56,140.94c-1.38-3.91-2.92-7.82-4.63-11.7h-.02c0-.31-.06-.61-.24-.88-.24-.36-.45-.73-.66-1.1-.4-.86-.8-1.72-1.21-2.57-1.13-3-1.43-6.26-.8-9.49.9-4.6,3.53-8.58,7.41-11.2,3.04-2.05,6.7-2.79,10.3-2.09,3.6.7,6.71,2.76,8.76,5.8,3.29,4.88,2,11.52-2.88,14.82-3.76,2.54-8.89,1.54-11.42-2.22-.94-1.39-1.28-3.06-.96-4.71.32-1.65,1.26-3.07,2.65-4,2.16-1.45,5.09-.88,6.54,1.27.52.77.71,1.69.53,2.59-.18.91-.7,1.69-1.46,2.21-.54.37-1.2.5-1.84.38-.64-.13-1.2-.5-1.57-1.04-.25-.37-.34-.81-.25-1.24.09-.44.33-.81.7-1.06.22-.15.49-.2.76-.16.27.05.5.2.65.43.47.71,1.43.89,2.15.42.71-.48.89-1.44.42-2.15-1.27-1.87-3.82-2.38-5.7-1.11-1.05.71-1.77,1.78-2.01,3.03s.01,2.51.72,3.56c.83,1.23,2.09,2.06,3.54,2.35,1.45.28,2.93-.02,4.16-.84,2.99-2.02,3.79-6.1,1.77-9.09-1.16-1.73-2.93-2.9-4.98-3.3-2.04-.39-4.12.02-5.85,1.19-2.07,1.4-3.48,3.52-3.96,5.98-.48,2.45.03,4.95,1.43,7.02,3.49,5.18,10.54,6.55,15.71,3.06,6.21-4.19,7.91-12.6,3.86-18.87l40.5,16.68c-8.45,4.75-33.66,17.48-62.12,18.03ZM219.69,116.76c-7.37-13.17-17.1-25.61-29.87-36.23l44.71,18.41c-2.06.45-4.04,1.28-5.84,2.49-5.37,3.62-8.48,9.34-9,15.33ZM245.46,70.4c1.57-.54,3.14-1.09,4.68-1.68.07-.02.15-.04.22-.05.22-.04.42-.14.59-.26,2.82-1.08,5.58-2.24,8.3-3.46,20.78,19.11,31.25,45.14,34.53,54.56h-.02l-40.08-16.51c7.15-1.68,11.78-8.74,10.36-16.01-.58-2.97-2.28-5.53-4.78-7.22-2.51-1.69-5.52-2.31-8.49-1.73-5.07.99-8.39,5.91-7.4,10.98.82,4.22,4.92,6.98,9.15,6.17,3.54-.69,5.87-4.14,5.18-7.68-.58-3-3.52-4.96-6.51-4.39-1.24.24-2.32.95-3.03,2.01-.71,1.05-.97,2.32-.72,3.56.43,2.22,2.59,3.68,4.82,3.25.84-.16,1.38-.97,1.22-1.81-.16-.84-.96-1.38-1.81-1.22-.55.11-1.09-.25-1.19-.8-.09-.43,0-.88.25-1.24.25-.37.62-.62,1.06-.7,1.33-.26,2.63.61,2.88,1.94.36,1.87-.86,3.69-2.74,4.06-2.56.5-5.03-1.18-5.52-3.73-.66-3.39,1.56-6.7,4.96-7.36,2.16-.42,4.35.03,6.17,1.25,1.82,1.23,3.06,3.09,3.48,5.25,1.12,5.78-2.66,11.39-8.44,12.51-2.63.52-5.29.25-7.72-.73l-.32-.13c-.78-.34-1.53-.74-2.25-1.23-3.04-2.05-5.1-5.16-5.8-8.76-.9-4.6.05-9.27,2.67-13.16,1.63-2.42,3.79-4.35,6.3-5.68ZM202.45,77.78c12.36,0,24.17-1.86,35.3-4.98-.41.5-.8,1.01-1.16,1.56-3.08,4.57-4.2,10.07-3.15,15.48h0c.41,2.08,1.2,4.02,2.3,5.77l-44.58-18.36c3.81.35,7.57.53,11.29.53ZM237.19,235.29c-12.79,1.51-112.61,10.72-159.69-60,.16.11.27.17.31.2l.39.22.45-.05c2.36-.27,4.42-1.05,6.23-2.15-.86.99-1.23,2-1.34,2.86-.17,1.31.2,2.27.2,2.27,0,0,.77.68,2.06.96s3.09.15,5.17-1.43l-4.21-5.99c2.55-2.09,4.5-4.86,5.96-7.67.13,15.03,9.19,18.86,9.66,19.05l.42.17.44-.11c6.77-1.78,10.41-7.51,12.37-13.12,2.85,14.85,12.51,16.97,13.02,17.07l.44.09.41-.19c6.4-3.02,8.91-9.44,9.78-15.38,4.95,13.67,14.5,14.42,15.01,14.45l.45.03.38-.25c8.76-5.74,8.08-17.64,6.86-24.33l9.08,9.08c7.23,7.23,8.02,16.66,7.9,21.34-1.88,1.23-3.43,5.16-3.57,7.59-.17,2.95,1.81,2.28,4.2,2.41s4.28,1.03,4.45-1.91c.13-2.27-.81-5.99-2.34-7.64.13-2.99-.07-7.91-1.98-13.13l11.37,11.37c-.86,3.16,2.08,9.12,4.73,11.77,3.06,3.06,4.25.23,6.73-2.24,2.48-2.48,5.3-3.68,2.24-6.73-2.65-2.65-8.61-5.59-11.77-4.73l-11.37-11.37c4.45,1.63,8.67,2.01,11.67,2.01.53,0,1.01-.01,1.46-.03,1.65,1.53,5.36,2.48,7.64,2.35,2.95-.17,2.05-2.06,1.92-4.45-.14-2.39.53-4.37-2.41-4.2-2.43.14-6.36,1.69-7.59,3.57-4.69.12-14.11-.67-21.35-7.91l-9.23-9.23c2.15.4,4.86.76,7.76.76,6.06,0,12.89-1.57,16.82-7.57l.25-.38-.03-.45c-.03-.5-.78-10.06-14.45-15.01,5.94-.87,12.35-3.38,15.37-9.78l.19-.41-.09-.44c-.1-.5-2.22-10.16-17.07-13.02,5.61-1.96,11.34-5.6,13.12-12.37l.11-.44-.17-.42c-.19-.48-4.03-9.54-19.05-9.67,2.77-1.45,5.5-3.36,7.57-5.85l5.99,4.2c1.58-2.08,1.72-3.87,1.43-5.17-.28-1.29-.96-2.06-.96-2.06,0,0-.96-.38-2.27-.2-.84.11-1.81.46-2.77,1.26,1.11-1.82,1.9-3.89,2.17-6.25l.05-.45-.22-.39c70.36,47.14,61.2,146.71,59.7,159.49ZM96.66,154.12h0c5.77,1.85,11.85,3.34,18.25,4.42-.05,1.07-.07,2.1-.07,3.09-.77,5.87-3.33,16.61-11.81,19.2-2.02-1.07-10.7-6.92-6.37-26.71ZM136.57,160.58c.46,3.56,1.88,19.12-7.81,24.17-2.1-.66-11.04-4.52-11.18-22.79.15-1.21.24-2.23.28-2.97h0c6.8,1.01,13.15,1.45,18.71,1.59ZM162.57,137.48c20.07,2.2,22.84,12.26,23.2,14.5-5.97,8.37-19.85,5.71-24.32,4.58l.1-.68c.07-.48,1.1-7.64,1.02-18.4ZM162.52,134.52c-.14-5.56-.59-11.9-1.59-18.69.74-.04,1.8-.13,3.07-.29,18.27.14,22.14,9.1,22.79,11.18-5.09,9.77-20.92,8.24-24.27,7.8ZM163.63,112.8c-1.02,0-2.08.02-3.18.08-1.08-6.39-2.57-12.47-4.43-18.23,19.92-4.4,25.78,4.32,26.84,6.34-2.59,8.48-13.36,11.04-19.23,11.81h0ZM155.11,91.84c-2.19-6.21-4.86-12-7.95-17.38,19.3-7.38,26.41.48,27.76,2.33-1.59,10.27-15.45,14.1-19.81,15.05ZM157.82,159.61l.8-.12c1.14,4.55,3.72,18.3-4.6,24.23-2.19-.39-12.27-3.24-14.49-23.09h1.06c10.11,0,16.77-.96,17.23-1.02ZM212.25,17.64c7.61-7.51,11.92-13.27,12.21-13.65l.48-.65c4.02,2.41,15.58,10.31,13.88,20.39-1.85,1.33-10.9,6.45-26.58-6.09h.01ZM210.13,19.71c2.85,2.2,14.83,12.21,11.57,22.61-1.91.97-11.06,4.53-24.02-8.21-.74-.96-1.4-1.74-1.89-2.29h0c5.51-4.1,10.32-8.28,14.35-12.11ZM193.37,33.55h0c.71.79,1.42,1.53,2.11,2.22,3.61,4.69,9.41,14.11,5.24,21.95-2.19.67-12.45,2.67-23.38-14.38,5.4-2.76,10.75-6.02,16.03-9.79ZM174.69,44.68c2.47,3.87,9.39,16.22,3.3,24.54-2.22.33-12.84.78-21.22-17.83h0c6-1.62,11.98-3.86,17.92-6.71ZM136.26,54.51c5.93-.2,11.88-1.02,17.82-2.45,2.72,6.17,5.71,10.47,8.64,13.45l-26.47-11h0ZM161.03,68.63c-4.13.09-9.17,1.06-15.28,3.44h0c-3.19-5.2-6.81-9.97-10.85-14.29l26.14,10.85ZM56.39,112.7c.21-.1.42-.2.63-.3.74-.36,1.49-.73,2.22-1.11.08-.04.16-.08.24-.12-.05.21-.1.43-.12.63-.16,1.32.23,2.28.23,2.28,0,0,.19.17.55.37.37.19.91.4,1.57.5,1.33.21,3.12-.04,5.11-1.73l-3.21-4.27c4.63-2.6,9.12-5.52,13.45-8.76.03-.02.06-.05.09-.07.74-.56,1.48-1.12,2.22-1.7.09-.07.18-.14.27-.21.67-.53,1.34-1.07,2.01-1.62.16-.13.32-.27.49-.41.59-.49,1.18-.98,1.76-1.49.26-.22.52-.45.77-.68.48-.43.97-.85,1.45-1.28.4-.36.8-.74,1.19-1.1.34-.31.68-.62,1.01-.94,1.48-1.41,2.92-2.85,4.33-4.33.32-.33.63-.67.94-1.01.37-.4.74-.79,1.1-1.19.43-.48.86-.96,1.28-1.44.23-.26.46-.52.69-.78.5-.58,1-1.17,1.49-1.76.13-.16.27-.32.4-.48.55-.67,1.09-1.34,1.62-2.01.07-.09.14-.17.21-.26.58-.74,1.15-1.48,1.7-2.22.02-.03.04-.06.07-.09,3.24-4.33,6.16-8.82,8.76-13.45l4.27,3.21c1.69-1.99,1.94-3.78,1.73-5.11-.1-.66-.32-1.2-.5-1.57-.2-.35-.37-.55-.37-.55,0,0-.97-.39-2.28-.23-.2.02-.41.07-.63.12.04-.08.08-.16.12-.23.38-.74.75-1.49,1.11-2.24.1-.21.2-.41.3-.62.27-.56.54-1.13.8-1.7,41.04,27.64,38.98,84.1,37.72,98.46h-.03c-14.35,1.28-70.76,3.39-98.45-37.72.57-.26,1.13-.53,1.69-.79ZM56.46,134.33l10.8,26.13c-2.98-2.85-7.23-5.73-13.23-8.37,1.42-5.92,2.23-11.86,2.43-17.76ZM25.81,236.9c-10.13,1.71-18.07-10-20.44-13.96l.55-.41h.01c.39-.29,6.18-4.63,13.73-12.29,12.64,15.74,7.48,24.82,6.15,26.66ZM44.4,219.76c-10.5,3.3-20.62-8.96-22.68-11.65h0c3.83-4.03,8-8.83,12.09-14.34.55.49,1.35,1.18,2.38,1.97,12.83,13.03,9.22,22.09,8.21,24.02ZM59.81,198.78c-7.83,4.17-17.26-1.65-21.96-5.25h.01c-.72-.72-1.48-1.45-2.29-2.18,3.76-5.28,7.02-10.62,9.77-16.01,17.17,10.97,15.14,21.27,14.47,23.44ZM71.31,176.04c-8.38,6.14-20.9-.96-24.65-3.36h0c2.84-5.93,5.07-11.91,6.69-17.91,18.84,8.43,18.32,19.01,17.96,21.27ZM70.66,159.46l-10.94-26.5c4.33,4.05,9.12,7.68,14.34,10.88-2.44,6.28-3.37,11.44-3.4,15.62ZM76.45,145.24c5.39,3.1,11.19,5.77,17.41,7.95-1,4.49-4.85,18.1-15.01,19.68h0c-1.8-1.34-9.64-8.54-2.39-27.63ZM79.18,189.22l18.61,44.67h0c-1.75-1.13-3.73-1.97-5.9-2.39-6.36-1.24-12.6.6-17.21,4.47,4.1-14.52,6.02-30.2,4.5-46.75ZM70.29,249.15v.03c.2-.21.38-.46.44-.78.08-.43.2-.84.31-1.26.32-.87.64-1.75.95-2.63,3.28-7.23,11.19-11.56,19.32-9.98,3.6.7,6.71,2.76,8.76,5.8s2.79,6.7,2.09,10.3c-1.12,5.78-6.75,9.56-12.52,8.44-2.16-.42-4.02-1.65-5.25-3.48-1.23-1.82-1.67-4.02-1.25-6.17.66-3.4,3.97-5.62,7.36-4.96,2.55.49,4.22,2.97,3.72,5.52-.18.91-.69,1.69-1.46,2.21s-1.69.71-2.59.53c-1.33-.26-2.2-1.55-1.94-2.88.18-.9,1.05-1.48,1.94-1.31.55.11.91.64.81,1.19-.16.84.38,1.65,1.22,1.81.85.16,1.65-.38,1.81-1.22.43-2.22-1.02-4.38-3.25-4.82-2.58-.49-5.07,1.18-5.57,3.75-.58,3,1.38,5.92,4.39,6.5,1.72.33,3.46-.02,4.91-1,1.45-.98,2.43-2.46,2.77-4.18.82-4.22-1.95-8.32-6.17-9.15-5.08-.98-9.99,2.34-10.98,7.4-.58,2.97.04,5.98,1.73,8.49s4.26,4.21,7.22,4.78c.88.17,1.76.25,2.63.25,6.36,0,12.06-4.45,13.44-10.87l16.84,40.42c-9.34-2.61-36.16-11.44-56.68-31.18,1.79-3.74,3.47-7.59,5-11.55Z" style="fill:#efefef;"/><path d="M103.83,2.13c-.01,1.39-.05,2.78-.12,4.18-.04.79-.11,1.58-.17,2.36-.06.85-.11,1.69-.19,2.54-.09.99-.23,1.97-.35,2.95-.08.64-.15,1.27-.24,1.9-.16,1.06-.35,2.12-.54,3.17-.09.54-.18,1.09-.29,1.64-.21,1.07-.45,2.13-.7,3.19-.12.54-.24,1.07-.37,1.6-.26,1.03-.54,2.04-.83,3.06-.16.57-.31,1.14-.48,1.71-.29.94-.6,1.88-.91,2.81-.22.64-.42,1.28-.65,1.92-.3.83-.62,1.66-.94,2.49-.28.72-.56,1.45-.86,2.17-.3.73-.61,1.44-.93,2.15-.36.82-.72,1.63-1.1,2.43-.29.61-.6,1.21-.9,1.82-.43.88-.87,1.76-1.34,2.63-.28.53-.58,1.04-.87,1.56l.08.03c-.52.92-1.04,1.83-1.58,2.74-.28.47-.58.93-.87,1.4-.57.92-1.15,1.84-1.76,2.75-.31.46-.64.91-.96,1.37-.61.88-1.22,1.76-1.86,2.62-.39.52-.79,1.01-1.18,1.52-.6.78-1.2,1.56-1.83,2.33-.55.66-1.11,1.29-1.67,1.94-.51.6-1.01,1.2-1.54,1.78-2.22,2.46-4.57,4.8-7.03,7.03-.59.53-1.19,1.03-1.78,1.54-.64.56-1.28,1.13-1.94,1.67-.77.63-1.55,1.23-2.33,1.83-.5.39-1,.79-1.51,1.17-.86.64-1.74,1.25-2.62,1.86-.46.31-.91.64-1.37.95-.91.61-1.83,1.18-2.75,1.76-.46.29-.92.59-1.39.87-.91.55-1.83,1.06-2.75,1.58-.52.29-1.03.58-1.55.86-.87.47-1.75.91-2.63,1.35-.6.31-1.2.61-1.81.9-.8.38-1.62.74-2.43,1.1-.71.32-1.42.63-2.14.93s-1.45.58-2.18.86c-.83.32-1.65.64-2.49.94-.64.23-1.29.43-1.93.65-.93.31-1.86.62-2.8.9-.57.17-1.15.33-1.72.49-1.01.28-2.03.57-3.05.82-.53.13-1.07.25-1.61.37-1.06.24-2.11.48-3.18.69-.56.11-1.11.2-1.67.3-1.05.19-2.09.37-3.15.53-.64.1-1.29.17-1.93.25-.97.12-1.93.25-2.91.35-.86.09-1.72.14-2.58.2-.78.06-1.54.13-2.32.17-1.63.08-3.26.12-4.89.12v230.74h332.38V2.13H103.83Z" style="fill:none;"/><path d="M8,96.32c.76-.03,1.53-.1,2.29-.16.78-.06,1.56-.1,2.34-.18.94-.09,1.89-.22,2.83-.34.58-.07,1.17-.14,1.75-.22,1.02-.15,2.03-.33,3.04-.51.5-.09,1.01-.17,1.51-.27,1.02-.2,2.04-.44,3.05-.67.49-.11.99-.22,1.48-.34.98-.24,1.95-.52,2.92-.79.53-.15,1.06-.29,1.59-.45.9-.27,1.8-.57,2.69-.87.6-.19,1.2-.39,1.79-.6.8-.29,1.59-.59,2.38-.9.68-.26,1.36-.52,2.03-.8.69-.28,1.37-.59,2.05-.89.76-.34,1.52-.67,2.27-1.03.58-.27,1.16-.57,1.74-.86.82-.41,1.65-.82,2.46-1.26.51-.27,1-.55,1.5-.83.86-.48,1.72-.97,2.57-1.48.45-.27.89-.56,1.34-.84.87-.54,1.73-1.08,2.58-1.65.44-.3.88-.61,1.32-.92.82-.57,1.65-1.14,2.45-1.74.49-.36.97-.75,1.46-1.13.73-.56,1.47-1.12,2.18-1.71.63-.52,1.25-1.07,1.87-1.61l.02.03c.54-.48,1.1-.94,1.64-1.43,1.15-1.04,2.29-2.12,3.41-3.24,1.11-1.11,2.19-2.25,3.24-3.41.49-.54.95-1.1,1.43-1.65.53-.62,1.08-1.24,1.6-1.87.58-.71,1.14-1.45,1.71-2.18.38-.49.76-.97,1.13-1.46.6-.81,1.18-1.63,1.75-2.46.31-.44.62-.88.92-1.32.57-.85,1.12-1.71,1.66-2.58.27-.45.56-.89.83-1.34.51-.85.99-1.71,1.48-2.58.28-.49.56-.98.83-1.48.44-.82.86-1.65,1.27-2.48.28-.58.58-1.15.85-1.73.36-.76.7-1.52,1.04-2.29.29-.67.6-1.35.88-2.03.28-.68.54-1.36.81-2.05.3-.78.61-1.57.89-2.36.21-.6.41-1.21.61-1.81.3-.88.59-1.77.86-2.66.16-.54.31-1.08.46-1.62.27-.97.54-1.93.78-2.9.13-.5.23-1.01.35-1.51.23-1,.46-2.01.66-3.02.1-.51.19-1.03.28-1.55.18-1,.36-2,.51-3,.09-.59.15-1.19.23-1.79.11-.93.24-1.86.33-2.79.07-.8.12-1.61.18-2.41.05-.74.12-1.48.16-2.22.07-1.3.1-2.62.11-3.95h-4.59c.13,3.14.81,5.57-3.19,5.57-3.74,0-10.03-2.13-11.66-4.98h-16.08c5.05,2.34,8.67,5.68,10.69,7.88,2.25.08,5.55,2.04,7.06,3.74,1.96,2.2-.01,2.91-1.8,4.5-1.79,1.6-2.72,3.47-4.68,1.27-1.61-1.82-3.3-5.69-2.84-7.89-3.22-3.4-10.45-9.5-20.68-9.5H6.61l31.12,31.12c7.25,7.25,16.66,8.04,21.34,7.91,1.23-1.88,5.16-3.43,7.59-3.57,2.94-.17,2.27,1.81,2.41,4.2.13,2.39,1.03,4.28-1.92,4.45-2.28.13-5.99-.82-7.64-2.35-.45.02-.93.03-1.46.03-3,0-7.22-.39-11.67-2.01l11.37,11.37c3.16-.86,9.12,2.08,11.77,4.73v.02c3.06,3.05.24,4.25-2.24,6.73-2.48,2.47-3.67,5.3-6.73,2.24-2.65-2.65-5.59-8.61-4.73-11.77l-11.37-11.37c1.91,5.23,2.11,10.14,1.98,13.13,1.53,1.65,2.47,5.36,2.34,7.63-.17,2.94-2.06,2.04-4.45,1.91s-4.37.54-4.2-2.41c.14-2.43,1.69-6.36,3.57-7.59.12-4.69-.68-14.11-7.91-21.35L4.66,4.65v44.01c0,10.23,6.1,17.45,9.5,20.68,2.2-.46,6.07,1.22,7.89,2.84,2.2,1.96.32,2.89-1.27,4.68-1.59,1.8-2.3,3.76-4.5,1.8-1.7-1.52-3.66-4.81-3.74-7.06-2.2-2.02-5.54-5.64-7.88-10.69v16.08c2.85,1.62,4.98,7.92,4.98,11.66,0,4.26-2.76,3.2-6.2,3.17v4.61h.06c1.51,0,3.01-.04,4.5-.11Z" style="fill:none;"/><path d="M9.64,88.65c0-3.74-2.13-10.04-4.98-11.66v-16.08c2.34,5.05,5.68,8.67,7.88,10.69.08,2.25,2.04,5.54,3.74,7.06,2.2,1.96,2.91,0,4.5-1.8,1.59-1.79,3.47-2.72,1.27-4.68-1.82-1.62-5.69-3.3-7.89-2.84-3.4-3.23-9.5-10.45-9.5-20.68V4.65l31.12,31.12c7.23,7.24,8.03,16.66,7.91,21.35-1.88,1.23-3.43,5.16-3.57,7.59-.17,2.95,1.81,2.28,4.2,2.41s4.28,1.03,4.45-1.91c.13-2.27-.81-5.98-2.34-7.63.13-2.99-.07-7.9-1.98-13.13l11.37,11.37c-.86,3.16,2.08,9.12,4.73,11.77,3.06,3.06,4.25.23,6.73-2.24,2.48-2.48,5.3-3.68,2.24-6.73v-.02c-2.65-2.65-8.61-5.59-11.77-4.73l-11.37-11.37c4.45,1.62,8.67,2.01,11.67,2.01.53,0,1.01-.01,1.46-.03,1.65,1.53,5.36,2.48,7.64,2.35,2.95-.17,2.05-2.06,1.92-4.45-.14-2.39.53-4.37-2.41-4.2-2.43.14-6.36,1.69-7.59,3.57-4.68.13-14.09-.66-21.34-7.91L6.61,2.72h44.01c10.23,0,17.46,6.1,20.68,9.5-.46,2.2,1.23,6.07,2.84,7.89,1.96,2.2,2.89.33,4.68-1.27,1.79-1.59,3.76-2.3,1.8-4.5-1.51-1.7-4.81-3.66-7.06-3.74-2.02-2.2-5.64-5.54-10.69-7.88h16.08c1.63,2.85,7.92,4.98,11.66,4.98,3.99,0,3.31-2.43,3.19-5.57H3.44v89.69c3.44.03,6.2,1.08,6.2-3.17Z" style="fill:#efefef;"/><path d="M10.65,101.64c.86-.06,1.72-.11,2.58-.2.98-.1,1.94-.23,2.91-.35.64-.08,1.29-.15,1.93-.25,1.06-.16,2.1-.34,3.15-.53.56-.1,1.11-.19,1.67-.3,1.07-.21,2.12-.45,3.18-.69.54-.12,1.08-.24,1.61-.37,1.02-.25,2.04-.54,3.05-.82.57-.16,1.15-.32,1.72-.49.94-.28,1.87-.59,2.8-.9.64-.22,1.29-.42,1.93-.65.84-.3,1.66-.62,2.49-.94.73-.28,1.46-.56,2.18-.86s1.43-.61,2.14-.93c.81-.36,1.63-.72,2.43-1.1.61-.29,1.21-.59,1.81-.9.88-.44,1.76-.88,2.63-1.35.52-.28,1.03-.57,1.55-.86.92-.52,1.84-1.03,2.75-1.58.47-.28.93-.58,1.39-.87.92-.58,1.84-1.15,2.75-1.76.46-.31.91-.64,1.37-.95.88-.61,1.76-1.22,2.62-1.86.51-.38,1.01-.78,1.51-1.17.78-.6,1.56-1.2,2.33-1.83.66-.54,1.3-1.11,1.94-1.67.59-.51,1.19-1.01,1.78-1.54,2.46-2.23,4.81-4.57,7.03-7.03.53-.58,1.03-1.18,1.54-1.78.56-.65,1.12-1.28,1.67-1.94.63-.77,1.23-1.55,1.83-2.33.39-.51.79-1,1.18-1.52.64-.86,1.25-1.74,1.86-2.62.32-.46.65-.91.96-1.37.61-.91,1.19-1.83,1.76-2.75.29-.47.59-.93.87-1.4.54-.91,1.06-1.82,1.58-2.74l-.08-.03c.29-.52.59-1.03.87-1.56.47-.87.91-1.75,1.34-2.63.3-.61.61-1.21.9-1.82.38-.8.74-1.61,1.1-2.43.32-.71.63-1.42.93-2.15.3-.72.58-1.45.86-2.17.32-.83.64-1.66.94-2.49.23-.64.43-1.28.65-1.92.31-.93.62-1.87.91-2.81.17-.57.32-1.14.48-1.71.29-1.02.57-2.03.83-3.06.13-.53.25-1.06.37-1.6.25-1.06.49-2.12.7-3.19.11-.55.2-1.1.29-1.64.19-1.05.38-2.11.54-3.17.09-.63.16-1.26.24-1.9.12-.98.26-1.96.35-2.95.08-.85.13-1.69.19-2.54.06-.78.13-1.57.17-2.36.07-1.4.11-2.79.12-4.18h-5.44c-.01,1.33-.04,2.65-.11,3.95-.04.74-.11,1.48-.16,2.22-.06.8-.11,1.61-.18,2.41-.09.93-.22,1.86-.33,2.79-.08.6-.14,1.2-.23,1.79-.15,1-.33,2-.51,3-.09.52-.18,1.04-.28,1.55-.2,1.01-.43,2.02-.66,3.02-.12.5-.22,1.01-.35,1.51-.24.97-.51,1.93-.78,2.9-.15.54-.3,1.08-.46,1.62-.27.89-.56,1.78-.86,2.66-.2.6-.4,1.21-.61,1.81-.28.79-.59,1.58-.89,2.36-.27.69-.53,1.37-.81,2.05-.28.68-.59,1.36-.88,2.03-.34.77-.68,1.53-1.04,2.29-.27.58-.57,1.15-.85,1.73-.41.83-.83,1.66-1.27,2.48-.27.5-.55.99-.83,1.48-.49.87-.97,1.73-1.48,2.58-.27.45-.56.89-.83,1.34-.54.87-1.09,1.73-1.66,2.58-.3.44-.61.88-.92,1.32-.57.83-1.15,1.65-1.75,2.46-.37.49-.75.97-1.13,1.46-.57.73-1.13,1.47-1.71,2.18-.52.63-1.07,1.25-1.6,1.87-.48.55-.94,1.11-1.43,1.65-1.05,1.16-2.13,2.3-3.24,3.41-1.12,1.12-2.26,2.2-3.41,3.24-.54.49-1.1.95-1.64,1.43l-.02-.03c-.62.54-1.24,1.09-1.87,1.61-.71.59-1.45,1.15-2.18,1.71-.49.38-.97.77-1.46,1.13-.8.6-1.63,1.17-2.45,1.74-.44.31-.88.62-1.32.92-.85.57-1.71,1.11-2.58,1.65-.45.28-.89.57-1.34.84-.85.51-1.71,1-2.57,1.48-.5.28-.99.56-1.5.83-.81.44-1.64.85-2.46,1.26-.58.29-1.16.59-1.74.86-.75.36-1.51.69-2.27,1.03-.68.3-1.36.61-2.05.89-.67.28-1.35.54-2.03.8-.79.31-1.58.61-2.38.9-.59.21-1.19.41-1.79.6-.89.3-1.79.6-2.69.87-.53.16-1.06.3-1.59.45-.97.27-1.94.55-2.92.79-.49.12-.99.23-1.48.34-1.01.23-2.03.47-3.05.67-.5.1-1.01.18-1.51.27-1.01.18-2.02.36-3.04.51-.58.08-1.17.15-1.75.22-.94.12-1.89.25-2.83.34-.78.08-1.56.12-2.34.18-.76.06-1.53.13-2.29.16-1.49.07-2.99.11-4.5.11h-.06v5.5c1.63,0,3.26-.04,4.89-.12.78-.04,1.54-.11,2.32-.17Z" style="fill:#efefef;"/><path d="M0,229.73v61.31c1.08-.38,2.23-.59,3.44-.59,5.77,0,10.45,4.68,10.45,10.45s-4.68,10.45-10.45,10.45c-1.21,0-2.36-.22-3.44-.59v5.9l3.29,2.79c-1.1,1.38-2.25,2.09-3.29,2.43v12.24h73.39v-104.37H0Z" style="fill:none;"/><path d="M3.29,319.43l-3.29-2.79v5.21c1.04-.34,2.19-1.05,3.29-2.43Z" style="fill:#efefef;"/><path d="M13.89,300.89c0-5.77-4.68-10.45-10.45-10.45-1.21,0-2.36.22-3.44.59v19.72c1.08.38,2.23.59,3.44.59,5.77,0,10.45-4.68,10.45-10.45Z" style="fill:#efefef;"/><path d="M313.2,0c.05.4.08.8.08,1.21,0,5.77-4.68,10.45-10.45,10.45s-10.45-4.68-10.45-10.45c0-.41.03-.81.08-1.21h-56.3v30.1h97.96V0h-20.92Z" style="fill:none;"/><path d="M302.83,11.66c5.77,0,10.45-4.68,10.45-10.45,0-.41-.03-.81-.08-1.21h-20.75c-.05.4-.08.8-.08,1.21,0,5.77,4.68,10.45,10.45,10.45Z" style="fill:#efefef;"/></g></svg>