<svg width="24" height="24" viewBox="0 0 24 24" fill="none" xmlns="http://www.w3.org/2000/svg">
<path d="M22 8.50006L6 20.5001V15.8041M2 8.50006L18 20.5001V15.8041M19.648 5.43706L18.989 4.39406C18.625 3.81706 18.443 3.52806 18.204 3.50206C17.966 3.47506 17.699 3.74906 17.166 4.29706C15.444 6.06706 13.722 5.80506 12 8.98806C10.278 5.80506 8.556 6.06706 6.834 4.29706C6.301 3.74906 6.034 3.47506 5.796 3.50206C5.557 3.52806 5.375 3.81706 5.011 4.39406L4.353 5.43706C4.098 5.83906 3.971 6.04106 4.006 6.25306C4.04 6.46506 4.223 6.61006 4.59 6.90006L10.772 11.7981C11.363 12.2661 11.659 12.5001 12 12.5001C12.341 12.5001 12.637 12.2661 13.228 11.7981L19.41 6.90006C19.777 6.61006 19.96 6.46506 19.994 6.25306C20.029 6.04106 19.902 5.83906 19.648 5.43706Z" stroke="#CCCCCC" stroke-width="1.5" stroke-linecap="round" stroke-linejoin="round"/>
</svg>
