<svg width="320" height="46" viewBox="0 0 320 46" fill="none" xmlns="http://www.w3.org/2000/svg">
<path d="M80.904 12.04C81.3334 12.152 81.4547 12.46 81.268 12.964C81.156 13.244 80.9787 13.5053 80.736 13.748C80.4 14.084 80.1014 14.3733 79.84 14.616C79.5974 14.84 79.3827 15.0267 79.196 15.176C78.8974 15.4373 78.5707 15.596 78.216 15.652C77.6187 15.7267 76.9 15.6707 76.06 15.484C75.892 15.4653 75.8267 15.3627 75.864 15.176C75.9014 15.0453 75.9667 14.98 76.06 14.98C77.4974 14.868 78.6827 14.448 79.616 13.72C79.0747 13.496 78.5614 13.3653 78.076 13.328C77.5907 13.3093 77.1054 13.4027 76.62 13.608C76.4894 13.664 76.3867 13.6453 76.312 13.552C76.2 13.384 76.1907 13.2347 76.284 13.104C76.508 12.824 76.7227 12.5813 76.928 12.376C77.1334 12.1707 77.3294 12.0027 77.516 11.872C77.9454 11.536 78.5054 11.452 79.196 11.62L80.904 12.04ZM308.292 20.384C308.721 20.496 308.843 20.804 308.656 21.308C308.544 21.588 308.367 21.8493 308.124 22.092C307.788 22.428 307.489 22.7173 307.228 22.96C306.985 23.184 306.771 23.3707 306.584 23.52C306.285 23.7813 305.959 23.94 305.604 23.996C305.007 24.0707 304.288 24.0147 303.448 23.828C303.28 23.8093 303.215 23.7067 303.252 23.52C303.289 23.3893 303.355 23.324 303.448 23.324C304.885 23.212 306.071 22.792 307.004 22.064C306.463 21.84 305.949 21.7093 305.464 21.672C304.979 21.6533 304.493 21.7467 304.008 21.952C303.877 22.008 303.775 21.9893 303.7 21.896C303.588 21.728 303.579 21.5787 303.672 21.448C303.896 21.168 304.111 20.9253 304.316 20.72C304.521 20.5147 304.717 20.3467 304.904 20.216C305.333 19.88 305.893 19.796 306.584 19.964L308.292 20.384ZM57.3 3.752C57.6174 3.28533 57.8974 2.89333 58.14 2.576C58.4014 2.25866 58.6254 2.016 58.812 1.848C59.3347 1.38133 59.8387 1.148 60.324 1.148C61.052 1.148 61.4814 1.456 61.612 2.072C61.724 2.61333 61.584 3.192 61.192 3.808C60.128 5.24533 58.9147 5.91733 57.552 5.824C57.2534 5.78667 56.9454 5.72133 56.628 5.628C56.3294 5.516 56.0307 5.36666 55.732 5.18C55.508 5.04933 55.3027 5.07733 55.116 5.264L54.864 5.46C54.696 5.59067 54.584 5.64667 54.528 5.628C54.416 5.53467 54.3974 5.404 54.472 5.236C55.256 3.724 55.9654 3.136 56.6 3.472C56.6934 3.528 56.796 3.584 56.908 3.64C57.0387 3.67733 57.1694 3.71467 57.3 3.752ZM58.364 3.192C58.1774 3.416 58.0094 3.64 57.86 3.864C58.6627 3.99467 59.484 3.85467 60.324 3.444C60.3987 3.07067 60.3614 2.8 60.212 2.632C60.1187 2.52 59.96 2.45467 59.736 2.436C59.3067 2.436 58.8494 2.688 58.364 3.192ZM98.292 5.32C98.6094 4.85333 98.8894 4.46133 99.132 4.144C99.3934 3.82667 99.6174 3.584 99.804 3.416C100.327 2.94933 100.831 2.716 101.316 2.716C102.044 2.716 102.473 3.024 102.604 3.64C102.716 4.18133 102.576 4.76 102.184 5.376C101.12 6.81333 99.9067 7.48533 98.544 7.392C98.2454 7.35467 97.9374 7.28933 97.62 7.196C97.3214 7.084 97.0227 6.93467 96.724 6.748C96.5 6.61733 96.2947 6.64533 96.108 6.832L95.856 7.028C95.688 7.15867 95.576 7.21467 95.52 7.196C95.408 7.10267 95.3894 6.972 95.464 6.804C96.248 5.292 96.9574 4.704 97.592 5.04C97.6854 5.096 97.788 5.152 97.9 5.208C98.0307 5.24533 98.1614 5.28267 98.292 5.32ZM99.356 4.76C99.1694 4.984 99.0014 5.208 98.852 5.432C99.6547 5.56267 100.476 5.42267 101.316 5.012C101.391 4.63867 101.353 4.368 101.204 4.2C101.111 4.088 100.952 4.02266 100.728 4.004C100.299 4.004 99.8414 4.256 99.356 4.76ZM126.684 3.192C127.001 2.72533 127.281 2.33333 127.524 2.016C127.785 1.69867 128.009 1.456 128.196 1.288C128.719 0.821332 129.223 0.587999 129.708 0.587999C130.436 0.587999 130.865 0.895999 130.996 1.512C131.108 2.05333 130.968 2.632 130.576 3.248C129.512 4.68533 128.299 5.35733 126.936 5.264C126.637 5.22667 126.329 5.16133 126.012 5.068C125.713 4.956 125.415 4.80667 125.116 4.62C124.892 4.48933 124.687 4.51733 124.5 4.704L124.248 4.9C124.08 5.03067 123.968 5.08667 123.912 5.068C123.8 4.97466 123.781 4.844 123.856 4.676C124.64 3.164 125.349 2.576 125.984 2.912C126.077 2.968 126.18 3.024 126.292 3.08C126.423 3.11733 126.553 3.15466 126.684 3.192ZM127.748 2.632C127.561 2.856 127.393 3.08 127.244 3.304C128.047 3.43467 128.868 3.29467 129.708 2.884C129.783 2.51067 129.745 2.24 129.596 2.072C129.503 1.96 129.344 1.89467 129.12 1.876C128.691 1.876 128.233 2.128 127.748 2.632ZM66.876 17.668C66.9694 17.388 67.1374 17.3973 67.38 17.696C69.1534 19.6747 69.76 22.176 69.2 25.2C69.1814 25.368 69.088 25.4707 68.92 25.508C68.7707 25.5267 68.6774 25.424 68.64 25.2C68.3787 23.24 67.66 21.532 66.484 20.076C66.3347 19.908 66.288 19.7027 66.344 19.46L66.876 17.668ZM50.244 11.9C50.3 11.4707 50.44 11.2747 50.664 11.312C50.944 11.3493 51.0747 11.5453 51.056 11.9C51 12.8707 50.8134 13.7013 50.496 14.392C50.1227 15.1947 49.6 15.624 48.928 15.68C48.4987 15.6987 48.088 15.4747 47.696 15.008C47.5654 15.2507 47.4067 15.456 47.22 15.624C47.0333 15.792 46.8374 15.932 46.632 16.044C46.1654 16.2867 45.708 16.3147 45.26 16.128C44.1774 15.68 44.056 14.3733 44.896 12.208C44.9894 12.0027 45.1014 11.8813 45.232 11.844C45.3067 11.8253 45.3907 11.8347 45.484 11.872C45.6894 11.9653 45.7547 12.1707 45.68 12.488C45.3627 13.5893 45.4934 14.1773 46.072 14.252C46.7814 14.3267 47.3414 13.5707 47.752 11.984C47.8454 11.6667 47.9947 11.536 48.2 11.592C48.4427 11.648 48.536 11.788 48.48 12.012C48.368 12.6653 48.4334 13.0947 48.676 13.3C48.8067 13.3933 48.9654 13.44 49.152 13.44C49.768 13.44 50.132 12.9267 50.244 11.9ZM45.344 9.38L50.384 7.14C50.72 7.00933 50.8694 7.084 50.832 7.364L50.72 8.316C50.6827 8.52133 50.5987 8.652 50.468 8.708L45.54 10.416C45.1294 10.5467 44.952 10.444 45.008 10.108L45.064 9.716C45.0827 9.56667 45.176 9.45467 45.344 9.38ZM90.06 12.852C90.116 12.4227 90.256 12.2267 90.48 12.264C90.76 12.3013 90.8907 12.4973 90.872 12.852C90.816 13.8227 90.6294 14.6533 90.312 15.344C89.9387 16.1467 89.416 16.576 88.744 16.632C88.3147 16.6507 87.904 16.4267 87.512 15.96C87.3814 16.2027 87.2227 16.408 87.036 16.576C86.8494 16.744 86.6534 16.884 86.448 16.996C85.9814 17.2387 85.524 17.2667 85.076 17.08C83.9934 16.632 83.872 15.3253 84.712 13.16C84.8054 12.9547 84.9174 12.8333 85.048 12.796C85.1227 12.7773 85.2067 12.7867 85.3 12.824C85.5054 12.9173 85.5707 13.1227 85.496 13.44C85.1787 14.5413 85.3094 15.1293 85.888 15.204C86.5974 15.2787 87.1574 14.5227 87.568 12.936C87.6614 12.6187 87.8107 12.488 88.016 12.544C88.2587 12.6 88.352 12.74 88.296 12.964C88.184 13.6173 88.2494 14.0467 88.492 14.252C88.6227 14.3453 88.7814 14.392 88.968 14.392C89.584 14.392 89.948 13.8787 90.06 12.852ZM85.188 10.36L90.228 8.12C90.564 7.98933 90.7134 8.064 90.676 8.344L90.564 9.296C90.5267 9.50133 90.4427 9.632 90.312 9.688L85.384 11.396C84.9734 11.5267 84.796 11.424 84.852 11.088L84.908 10.696C84.9267 10.5467 85.02 10.4347 85.188 10.36ZM117.64 10.276C117.696 9.84667 117.836 9.65067 118.06 9.688C118.34 9.72533 118.471 9.92133 118.452 10.276C118.396 11.2467 118.209 12.0773 117.892 12.768C117.519 13.5707 116.996 14 116.324 14.056C115.895 14.0747 115.484 13.8507 115.092 13.384C114.961 13.6267 114.803 13.832 114.616 14C114.429 14.168 114.233 14.308 114.028 14.42C113.561 14.6627 113.104 14.6907 112.656 14.504C111.573 14.056 111.452 12.7493 112.292 10.584C112.385 10.3787 112.497 10.2573 112.628 10.22C112.703 10.2013 112.787 10.2107 112.88 10.248C113.085 10.3413 113.151 10.5467 113.076 10.864C112.759 11.9653 112.889 12.5533 113.468 12.628C114.177 12.7027 114.737 11.9467 115.148 10.36C115.241 10.0427 115.391 9.912 115.596 9.968C115.839 10.024 115.932 10.164 115.876 10.388C115.764 11.0413 115.829 11.4707 116.072 11.676C116.203 11.7693 116.361 11.816 116.548 11.816C117.164 11.816 117.528 11.3027 117.64 10.276ZM112.768 7.756L117.808 5.516C118.144 5.38533 118.293 5.46 118.256 5.74L118.144 6.692C118.107 6.89733 118.023 7.028 117.892 7.084L112.964 8.792C112.553 8.92267 112.376 8.82 112.432 8.484L112.488 8.092C112.507 7.94267 112.6 7.83067 112.768 7.756ZM7.18002 33.572C7.64668 33.292 7.81468 33.3853 7.68402 33.852L7.40402 34.748C7.34802 34.9907 7.14268 35.2147 6.78802 35.42L1.35602 38.556C1.18802 38.6493 1.05735 38.6773 0.964016 38.64C0.889349 38.584 0.852016 38.472 0.852016 38.304V37.828C0.852016 37.6787 1.02002 37.464 1.35602 37.184L7.18002 33.572ZM42.544 28.532C43.0107 28.252 43.1787 28.3453 43.048 28.812L42.768 29.708C42.712 29.9507 42.5067 30.1747 42.152 30.38L36.72 33.516C36.552 33.6093 36.4214 33.6373 36.328 33.6C36.2534 33.544 36.216 33.432 36.216 33.264V32.788C36.216 32.6387 36.384 32.424 36.72 32.144L42.544 28.532ZM65.728 37.828C66.1947 37.548 66.3627 37.6413 66.232 38.108L65.952 39.004C65.896 39.2467 65.6907 39.4707 65.336 39.676L59.904 42.812C59.736 42.9053 59.6054 42.9333 59.512 42.896C59.4374 42.84 59.4 42.728 59.4 42.56V42.084C59.4 41.9347 59.568 41.72 59.904 41.44L65.728 37.828ZM76.34 8.68C76.8067 8.4 76.9747 8.49333 76.844 8.96L76.564 9.856C76.508 10.0987 76.3027 10.3227 75.948 10.528L70.516 13.664C70.348 13.7573 70.2174 13.7853 70.124 13.748C70.0494 13.692 70.012 13.58 70.012 13.412V12.936C70.012 12.7867 70.18 12.572 70.516 12.292L76.34 8.68ZM108.988 34.972C109.455 34.692 109.623 34.7853 109.492 35.252L109.212 36.148C109.156 36.3907 108.951 36.6147 108.596 36.82L103.164 39.956C102.996 40.0493 102.865 40.0773 102.772 40.04C102.697 39.984 102.66 39.872 102.66 39.704V39.228C102.66 39.0787 102.828 38.864 103.164 38.584L108.988 34.972ZM132.06 35.868C132.527 35.588 132.695 35.6813 132.564 36.148L132.284 37.044C132.228 37.2867 132.023 37.5107 131.668 37.716L126.236 40.852C126.068 40.9453 125.937 40.9733 125.844 40.936C125.769 40.88 125.732 40.768 125.732 40.6V40.124C125.732 39.9747 125.9 39.76 126.236 39.48L132.06 35.868ZM318.792 40.068C319.259 39.788 319.427 39.8813 319.296 40.348L319.016 41.244C318.96 41.4867 318.755 41.7107 318.4 41.916L312.968 45.052C312.8 45.1453 312.669 45.1733 312.576 45.136C312.501 45.08 312.464 44.968 312.464 44.8V44.324C312.464 44.1747 312.632 43.96 312.968 43.68L318.792 40.068ZM58.364 7.672C58.756 6.75733 59.008 6.73867 59.12 7.616L59.764 14.476C60.4734 20.6547 60.3894 24.5747 59.512 26.236C59.3814 26.46 59.2787 26.516 59.204 26.404C59.1294 26.3107 59.092 26.152 59.092 25.928C59.1294 24.36 59.0174 22.596 58.756 20.636C58.756 20.5613 58.56 18.788 58.168 15.316L57.552 10.248C57.5147 9.87467 57.552 9.55733 57.664 9.296L58.364 7.672ZM98.74 10.304C99.132 9.38933 99.384 9.37067 99.496 10.248L100.14 17.108C100.849 23.2867 100.765 27.2067 99.888 28.868C99.7574 29.092 99.6547 29.148 99.58 29.036C99.5054 28.9427 99.468 28.784 99.468 28.56C99.5054 26.992 99.3934 25.228 99.132 23.268C99.132 23.1933 98.936 21.42 98.544 17.948L97.928 12.88C97.8907 12.5067 97.928 12.1893 98.04 11.928L98.74 10.304ZM127.636 6.86C128.028 5.94533 128.28 5.92667 128.392 6.804L129.036 13.664C129.745 19.8427 129.661 23.7627 128.784 25.424C128.653 25.648 128.551 25.704 128.476 25.592C128.401 25.4987 128.364 25.34 128.364 25.116C128.401 23.548 128.289 21.784 128.028 19.824C128.028 19.7493 127.832 17.976 127.44 14.504L126.824 9.436C126.787 9.06267 126.824 8.74533 126.936 8.484L127.636 6.86ZM56.936 28.392C56.9734 28.336 57.048 28.3173 57.16 28.336C57.9067 28.5973 58.5694 28.9893 59.148 29.512C59.2227 29.5867 59.232 29.6613 59.176 29.736L57.86 31.864C57.804 31.9573 57.7107 31.948 57.58 31.836C57.5054 31.78 57.3094 31.6493 56.992 31.444C56.6747 31.2387 56.2173 30.9587 55.62 30.604C55.5267 30.548 55.508 30.492 55.564 30.436L56.936 28.392ZM30.476 30.408C30.5134 30.352 30.588 30.3333 30.7 30.352C31.0734 30.4827 31.4187 30.6413 31.736 30.828C32.072 31.0147 32.3894 31.2387 32.688 31.5C32.7627 31.5747 32.772 31.6587 32.716 31.752L31.372 33.88C31.3347 33.936 31.2507 33.9173 31.12 33.824C31.064 33.768 30.9054 33.656 30.644 33.488C30.3827 33.3387 30.0094 33.124 29.524 32.844L28.46 34.496C28.404 34.5893 28.3107 34.58 28.18 34.468C28.1054 34.412 27.9093 34.2813 27.592 34.076C27.2747 33.8707 26.8174 33.5907 26.22 33.236C26.1453 33.18 26.136 33.124 26.192 33.068L27.564 31.024C27.6014 30.968 27.676 30.9493 27.788 30.968C28.1054 31.0613 28.404 31.1827 28.684 31.332C28.964 31.5 29.2254 31.6867 29.468 31.892L30.476 30.408ZM315.74 35.252C315.777 35.196 315.852 35.1773 315.964 35.196C316.711 35.4573 317.373 35.8493 317.952 36.372C318.027 36.4467 318.036 36.5213 317.98 36.596L316.664 38.724C316.608 38.8173 316.515 38.808 316.384 38.696C316.309 38.64 316.113 38.5093 315.796 38.304C315.479 38.0987 315.021 37.8187 314.424 37.464C314.331 37.408 314.312 37.352 314.368 37.296L315.74 35.252ZM52.904 8.204C52.9974 8.204 53.072 8.27867 53.128 8.428C53.184 8.596 53.3894 8.88533 53.744 9.296C53.9307 9.50133 54.108 9.69733 54.276 9.884C54.444 10.052 54.612 10.2013 54.78 10.332C54.9854 10.5 54.976 10.7613 54.752 11.116L54.024 12.208C54.0614 12.656 54.1454 13.328 54.276 14.224C54.4254 15.12 54.5933 16.2587 54.78 17.64C54.9854 19.0027 55.1254 20.16 55.2 21.112C55.2747 22.064 55.2934 22.8107 55.256 23.352C55.1067 25.592 54.2574 26.936 52.708 27.384C52.484 27.4587 52.2694 27.5053 52.064 27.524C51.8774 27.5427 51.7 27.5427 51.532 27.524C51.0094 27.468 50.6267 26.992 50.384 26.096C50.1414 25.2 50.104 24.5 50.272 23.996C50.3094 23.884 50.3654 23.828 50.44 23.828C50.5333 23.828 50.608 23.8653 50.664 23.94C51.112 24.3133 51.7 24.4907 52.428 24.472C53.1934 24.4347 53.8 24.248 54.248 23.912C54.304 23.2773 53.9587 20.6827 53.212 16.128L52.652 12.74C52.5587 12.124 52.4467 11.5733 52.316 11.088C52.2414 10.8267 52.1854 10.612 52.148 10.444C52.1294 10.2573 52.1107 10.1267 52.092 10.052C52.0547 9.84667 52.0734 9.67867 52.148 9.548L52.708 8.344C52.764 8.25067 52.8294 8.204 52.904 8.204ZM50.664 23.94C50.9814 24.332 51.2054 24.9013 51.336 25.648C51.4667 26.376 51.504 27.132 51.448 27.916C51.392 28.644 51.112 29.6147 50.608 30.828C49.9174 32.508 48.844 33.7867 47.388 34.664C46.66 35.112 45.8667 35.364 45.008 35.42C44.1307 35.476 42.6654 34.8507 40.612 33.544C40.4814 33.4507 40.4254 33.3387 40.444 33.208C40.4627 33.0773 40.5747 33.04 40.78 33.096C43.412 33.992 45.8387 33.5067 48.06 31.64C49.1427 30.7253 49.9827 29.6427 50.58 28.392C50.6733 28.2053 50.692 27.972 50.636 27.692C50.58 27.3747 50.244 26.9267 49.628 26.348C49.5534 26.2733 49.544 26.152 49.6 25.984L50.272 23.996C50.3094 23.884 50.3654 23.828 50.44 23.828C50.5333 23.828 50.608 23.8653 50.664 23.94ZM92.972 10.696C93.0654 10.696 93.14 10.7707 93.196 10.92C93.252 11.088 93.4574 11.3773 93.812 11.788C93.9987 11.9933 94.176 12.1893 94.344 12.376C94.512 12.544 94.68 12.6933 94.848 12.824C95.0534 12.992 95.044 13.2533 94.82 13.608L94.092 14.7C94.1294 15.148 94.2134 15.82 94.344 16.716C94.4934 17.612 94.6614 18.7507 94.848 20.132C95.0534 21.4947 95.1934 22.652 95.268 23.604C95.3427 24.556 95.3614 25.3027 95.324 25.844C95.1747 28.084 94.3254 29.428 92.776 29.876C92.552 29.9507 92.3374 29.9973 92.132 30.016C91.9454 30.0347 91.768 30.0347 91.6 30.016C91.0774 29.96 90.6947 29.484 90.452 28.588C90.2094 27.692 90.172 26.992 90.34 26.488C90.3774 26.376 90.4334 26.32 90.508 26.32C90.6014 26.32 90.676 26.3573 90.732 26.432C91.18 26.8053 91.768 26.9827 92.496 26.964C93.2614 26.9267 93.868 26.74 94.316 26.404C94.372 25.7693 94.0267 23.1747 93.28 18.62L92.72 15.232C92.6267 14.616 92.5147 14.0653 92.384 13.58C92.3094 13.3187 92.2534 13.104 92.216 12.936C92.1974 12.7493 92.1787 12.6187 92.16 12.544C92.1227 12.3387 92.1414 12.1707 92.216 12.04L92.776 10.836C92.832 10.7427 92.8974 10.696 92.972 10.696ZM90.732 26.432C91.0494 26.824 91.2734 27.3933 91.404 28.14C91.5347 28.868 91.572 29.624 91.516 30.408C91.46 31.136 91.18 32.1067 90.676 33.32C89.9854 35 88.912 36.2787 87.456 37.156C86.728 37.604 85.9347 37.856 85.076 37.912C84.1987 37.968 82.7334 37.3427 80.68 36.036C80.5494 35.9427 80.4934 35.8307 80.512 35.7C80.5307 35.5693 80.6427 35.532 80.848 35.588C83.48 36.484 85.9067 35.9987 88.128 34.132C89.2107 33.2173 90.0507 32.1347 90.648 30.884C90.7414 30.6973 90.76 30.464 90.704 30.184C90.648 29.8667 90.312 29.4187 89.696 28.84C89.6214 28.7653 89.612 28.644 89.668 28.476L90.34 26.488C90.3774 26.376 90.4334 26.32 90.508 26.32C90.6014 26.32 90.676 26.3573 90.732 26.432ZM112.068 29.204C112.329 29.204 112.516 29.4467 112.628 29.932C112.74 30.4173 112.74 30.9027 112.628 31.388C112.516 31.8733 112.339 32.1253 112.096 32.144C110.491 32.312 109.501 31.4253 109.128 29.484C109.109 29.428 109.1 29.372 109.1 29.316C108.484 30.2307 108.017 30.716 107.7 30.772C106.057 31.0707 104.807 30.9213 103.948 30.324C103.631 30.1 103.556 29.7547 103.724 29.288C104.06 28.2053 104.695 27.2813 105.628 26.516C106.58 25.732 107.579 25.2187 108.624 24.976L108.568 23.604C108.568 23.4547 108.727 23.044 109.044 22.372C109.212 22.0547 109.343 21.8027 109.436 21.616C109.529 21.4107 109.585 21.2893 109.604 21.252C109.809 20.916 109.931 21.0373 109.968 21.616C109.968 21.728 109.968 21.952 109.968 22.288C109.987 22.624 110.005 23.0813 110.024 23.66C110.043 24.2387 110.061 24.7987 110.08 25.34C110.117 25.8627 110.164 26.3853 110.22 26.908C110.332 27.9347 110.631 28.616 111.116 28.952C111.34 29.12 111.657 29.204 112.068 29.204ZM108.68 26.32C108.493 26.3573 108.269 26.432 108.008 26.544C107.747 26.6373 107.448 26.768 107.112 26.936C106.44 27.272 106.011 27.6173 105.824 27.972C106.123 28.196 106.776 28.2893 107.784 28.252C108.288 28.2147 108.643 28.084 108.848 27.86C108.829 27.7667 108.801 27.5893 108.764 27.328C108.745 27.0667 108.717 26.7307 108.68 26.32ZM118.648 28.952C118.984 29.008 119.208 29.2973 119.32 29.82C119.432 30.3427 119.432 30.856 119.32 31.36C119.208 31.8827 119.068 32.144 118.9 32.144C118.135 32.1627 117.472 31.9293 116.912 31.444C116.408 30.996 115.895 30.2773 115.372 29.288C115.092 29.9413 114.831 30.464 114.588 30.856C114.345 31.2667 114.112 31.5373 113.888 31.668C113.403 31.948 112.815 32.0973 112.124 32.116C111.695 32.1533 111.368 31.9107 111.144 31.388C110.92 30.884 110.873 30.3987 111.004 29.932C111.153 29.4467 111.517 29.204 112.096 29.204C113.44 29.204 114.317 28.7373 114.728 27.804C114.728 27.804 114.709 27.7013 114.672 27.496C114.653 27.2907 114.607 26.9827 114.532 26.572L113.916 23.408C113.785 22.7547 113.683 22.2133 113.608 21.784C113.533 21.336 113.477 20.9907 113.44 20.748C113.384 20.2627 113.421 19.9267 113.552 19.74L114.364 18.452C114.551 18.1907 114.7 18.3027 114.812 18.788C114.849 18.9 114.896 19.1333 114.952 19.488C115.008 19.824 115.073 20.272 115.148 20.832C115.745 24.64 116.268 26.9173 116.716 27.664C117.164 28.4107 117.808 28.84 118.648 28.952ZM119.124 18.816L120.552 25.396C120.645 25.8813 120.72 26.292 120.776 26.628C120.851 26.964 120.897 27.2347 120.916 27.44C120.935 27.6267 120.944 27.832 120.944 28.056C120.944 28.28 120.925 28.5227 120.888 28.784C120.664 31.024 120.011 32.144 118.928 32.144C118.349 32.144 117.873 31.752 117.5 30.968C117.145 30.184 117.117 29.624 117.416 29.288C117.733 28.9333 118.097 28.812 118.508 28.924C118.956 29.036 119.339 29.0173 119.656 28.868C119.637 28.644 119.563 28.2333 119.432 27.636C119.32 27.0387 119.152 26.264 118.928 25.312C118.48 23.4453 118.144 21.8587 117.92 20.552C117.845 20.048 118.097 19.376 118.676 18.536C118.863 18.2373 119.012 18.3307 119.124 18.816ZM77.04 18.872C77.6747 18.872 78.2814 19.04 78.86 19.376C79.1774 19.544 79.4947 19.7307 79.812 19.936C80.1294 20.1227 80.456 20.3373 80.792 20.58C82.696 21.8867 85.048 22.792 87.848 23.296C88.016 23.3147 88.0814 23.3987 88.044 23.548C87.9694 23.9773 87.7174 24.528 87.288 25.2C87.1947 25.3493 87.064 25.396 86.896 25.34C84.7307 24.6493 82.9387 24.2387 81.52 24.108C80.008 23.94 78.6174 23.996 77.348 24.276C75.9107 24.5933 74.772 24.668 73.932 24.5C73.5587 24.4253 73.4467 24.3227 73.596 24.192C74.716 23.296 76.7507 22.82 79.7 22.764C77.9827 21.2707 76.0414 20.748 73.876 21.196C73.7827 21.2147 73.7174 21.168 73.68 21.056C73.6427 20.944 73.6707 20.8413 73.764 20.748C74.7347 19.4973 75.8267 18.872 77.04 18.872ZM313.696 20.664C313.789 20.664 313.864 20.72 313.92 20.832C315.787 24.1733 316.692 27.328 316.636 30.296C316.58 32.4613 316.104 33.656 315.208 33.88C314.835 33.9733 314.461 34.0013 314.088 33.964C313.733 33.9267 313.388 33.8427 313.052 33.712C312.697 33.5627 312.408 33.4133 312.184 33.264C311.96 33.1147 311.773 32.9747 311.624 32.844C311.344 33.5533 311.045 34.0667 310.728 34.384C310.429 34.6827 309.916 34.748 309.188 34.58C308.441 34.412 307.676 34.0573 306.892 33.516C306.332 34.356 305.492 34.916 304.372 35.196C303.233 35.476 302.263 35.4107 301.46 35C301.068 34.7947 300.779 34.524 300.592 34.188C295.16 35.0093 289.028 35.7373 282.196 36.372C275.383 37.0067 267.851 37.548 259.6 37.996C253.533 38.3133 247.42 38.556 241.26 38.724C235.1 38.9107 228.893 39.0133 222.64 39.032C192.437 39.0507 168.749 37.9587 151.576 35.756C141.496 34.4307 135.112 33.1893 132.424 32.032L132.144 32.396C131.827 32.7693 131.36 32.9187 130.744 32.844C129.176 32.6387 128.009 32.2093 127.244 31.556C126.908 31.4627 126.684 31.4907 126.572 31.64C126.311 31.9947 126.068 32.2933 125.844 32.536C125.62 32.7973 125.433 33.0027 125.284 33.152C125.004 33.432 124.397 33.7773 123.464 34.188C122.568 34.58 121.597 34.776 120.552 34.776C120.291 34.776 120.132 34.7107 120.076 34.58C120.039 34.4493 120.123 34.3187 120.328 34.188C122.419 33.292 124.164 32.3307 125.564 31.304C125.713 31.192 125.853 31.08 125.984 30.968C126.115 30.8747 126.217 30.7907 126.292 30.716C126.348 30.6227 126.376 30.492 126.376 30.324C126.245 29.652 126.535 28.84 127.244 27.888C127.263 27.8507 127.309 27.776 127.384 27.664C127.477 27.5333 127.599 27.3467 127.748 27.104C128.383 26.1707 128.84 25.7413 129.12 25.816C129.288 25.872 129.4 25.9373 129.456 26.012C130.52 27.5053 131.593 28.6067 132.676 29.316C135.924 30.5293 140.367 31.5933 146.004 32.508C151.641 33.4413 158.473 34.2067 166.5 34.804C174.508 35.42 183.188 35.8867 192.54 36.204C201.892 36.5213 211.925 36.6893 222.64 36.708C235.483 36.7267 247.588 36.428 258.956 35.812C270.324 35.2147 280.955 34.2907 290.848 33.04C295.664 32.4427 299.295 31.9107 301.74 31.444V31.472C301.74 32.0693 301.889 32.4707 302.188 32.676C302.337 32.7693 302.58 32.8253 302.916 32.844C303.271 32.8627 303.719 32.8627 304.26 32.844C305.361 32.788 306.155 32.5547 306.64 32.144C307.144 31.7147 307.564 31.0893 307.9 30.268C308.012 29.9693 308.152 29.876 308.32 29.988C308.488 30.1 308.544 30.2493 308.488 30.436C308.283 31.0707 308.357 31.4907 308.712 31.696C309.216 32.032 309.804 32.2 310.476 32.2C310.756 32.2 310.952 32.0787 311.064 31.836C311.12 31.7053 311.176 31.556 311.232 31.388C311.307 31.22 311.381 31.024 311.456 30.8C311.531 30.576 311.587 30.3987 311.624 30.268C311.68 30.156 311.717 30.0907 311.736 30.072C311.923 29.9413 312.072 29.9973 312.184 30.24C312.893 31.192 313.957 31.724 315.376 31.836C315.507 31.8547 315.572 31.7613 315.572 31.556C315.572 30.996 315.469 30.3147 315.264 29.512C315.059 28.728 314.76 27.8227 314.368 26.796C313.584 24.7427 313.108 23.7067 312.94 23.688C312.884 23.6693 312.819 23.7067 312.744 23.8C312.651 23.912 312.52 23.94 312.352 23.884C312.203 23.828 312.175 23.688 312.268 23.464C312.455 22.9787 312.623 22.568 312.772 22.232C312.94 21.8773 313.089 21.588 313.22 21.364C313.481 20.8973 313.64 20.664 313.696 20.664ZM76.536 24.444C76.6294 24.5187 76.7227 24.6027 76.816 24.696C76.928 24.7893 77.0214 24.8827 77.096 24.976C77.8614 25.9653 78.16 26.8053 77.992 27.496C77.9174 27.8507 77.8147 28.168 77.684 28.448C77.5534 28.728 77.3947 28.9893 77.208 29.232C77.1147 29.3627 77.0494 29.428 77.012 29.428C75.2574 29.316 73.6147 28.756 72.084 27.748C71.524 29.0547 70.6934 29.8947 69.592 30.268C68.5094 30.6227 67.4174 30.6227 66.316 30.268C66.2414 30.6227 66.008 31.2947 65.616 32.284C63.8054 35.6627 59.8107 38.444 53.632 40.628C47.416 42.8307 40.612 43.8667 33.22 43.736C31.5587 43.6987 29.9347 43.5587 28.348 43.316C26.7613 43.0733 25.2027 42.7187 23.672 42.252C20.6107 41.3 18.324 40.292 16.812 39.228C16.3453 38.9107 15.8413 38.5 15.3 37.996C14.7587 37.5107 14.1707 36.9413 13.536 36.288C12.9013 35.6347 12.332 35.0093 11.828 34.412C11.324 33.8147 10.876 33.2547 10.484 32.732C10.484 32.732 10.5027 32.6947 10.54 32.62L10.596 32.508C13.7134 35.1213 17.372 37.2027 21.572 38.752C25.772 40.3013 29.9627 41.104 34.144 41.16C42.768 41.2907 50.7387 39.6573 58.056 36.26C61.808 34.524 64.1227 33.0213 65 31.752C65.0934 31.6213 65.14 31.528 65.14 31.472C65.1027 30.5947 64.8694 29.68 64.44 28.728C64.384 28.5973 64.384 28.4853 64.44 28.392L65.196 26.824C65.4574 26.264 65.672 26.1613 65.84 26.516C66.2507 27.3187 67.0814 27.804 68.332 27.972C69.5454 28.14 70.684 27.8507 71.748 27.104C72.028 26.3947 72.3174 25.8067 72.616 25.34C72.9334 24.8733 73.2414 24.5093 73.54 24.248L76.536 24.444ZM34.004 24.192V24.248C34.844 25.2373 35.5347 25.7133 36.076 25.676C36.6547 25.6387 37.336 25.4333 38.12 25.06C38.5307 24.8733 38.8667 24.724 39.128 24.612C39.3894 24.5 39.576 24.416 39.688 24.36C39.3707 24.0987 39.0067 23.8747 38.596 23.688C38.204 23.4827 37.7653 23.3333 37.28 23.24C36.3094 23.016 35.684 22.932 35.404 22.988C35.1054 23.044 34.9187 23.0347 34.844 22.96C34.7694 22.8853 34.7414 22.7827 34.76 22.652C34.928 22.0547 35.32 21.5227 35.936 21.056C36.552 20.5893 37.3454 20.496 38.316 20.776C38.6894 20.888 39.128 21.0653 39.632 21.308C42.264 22.5773 44.9894 23.3427 47.808 23.604C48.2187 23.5853 48.34 23.7533 48.172 24.108L47.22 25.592C47.1267 25.7973 46.9307 25.8813 46.632 25.844C44.3734 25.4893 42.5254 25.508 41.088 25.9C40.7893 25.9933 40.4347 26.1147 40.024 26.264C39.6134 26.4133 39.1374 26.5907 38.596 26.796C38.0734 26.9827 37.588 27.1507 37.14 27.3C36.692 27.4307 36.3 27.5427 35.964 27.636C35.628 27.692 35.264 27.608 34.872 27.384C34.48 27.16 34.144 26.7773 33.864 26.236C30.784 28.0653 26.864 28.952 22.104 28.896C17.8293 28.84 14.88 28.4573 13.256 27.748L12.528 28.616C12.2107 28.9893 11.7533 29.148 11.156 29.092C9.58802 28.8867 8.42135 28.4573 7.65602 27.804C7.35735 27.7107 7.13335 27.7387 6.98402 27.888C6.70402 28.2427 6.45202 28.5413 6.22802 28.784C6.00402 29.0267 5.81735 29.2227 5.66802 29.372C5.38802 29.652 4.80935 29.988 3.93202 30.38C3.50268 30.5667 3.03602 30.7067 2.53202 30.8C2.04668 30.912 1.52402 30.9773 0.964016 30.996C0.684016 30.996 0.525349 30.94 0.488016 30.828C0.432016 30.66 0.516016 30.52 0.740016 30.408C1.78535 29.96 2.74668 29.4933 3.62402 29.008C4.50135 28.5413 5.28535 28.056 5.97602 27.552C6.12535 27.44 6.26535 27.328 6.39602 27.216C6.52668 27.104 6.62935 27.0107 6.70402 26.936C6.76002 26.8427 6.78802 26.7213 6.78802 26.572C6.67602 25.9187 6.95602 25.0973 7.62802 24.108C7.66535 24.0333 7.84268 23.772 8.16002 23.324C8.83202 22.316 9.30802 21.9893 9.58802 22.344C11.3987 24.864 15.468 26.2267 21.796 26.432C26.5933 26.5627 30.6627 25.816 34.004 24.192ZM74.212 25.34C73.82 25.34 73.512 25.4987 73.288 25.816C74.5014 26.5253 75.6587 26.9267 76.76 27.02C76.592 26.6093 76.2187 26.2267 75.64 25.872C75.0614 25.5173 74.5854 25.34 74.212 25.34ZM9.25202 23.828C8.84135 23.9213 8.56135 24.08 8.41202 24.304C8.35602 25.088 9.07468 25.648 10.568 25.984C10.0267 25.424 9.58802 24.7053 9.25202 23.828ZM128.952 27.58C128.523 27.636 128.205 27.7947 128 28.056C127.944 28.728 128.448 29.232 129.512 29.568C129.568 29.5867 129.615 29.596 129.652 29.596C129.708 29.6147 129.764 29.6333 129.82 29.652C129.652 29.372 129.493 29.0547 129.344 28.7C129.213 28.364 129.083 27.9907 128.952 27.58Z" fill="#F2EDE0"/>
</svg>
